<svg version="1.1" id="Layer_1" xmlns="http://www.w3.org/2000/svg" xmlns:xlink="http://www.w3.org/1999/xlink" x="0px" y="0px"
	 width="100%" viewBox="0 0 2000 2000" enable-background="new 0 0 2000 2000" xml:space="preserve">
<path fill="#4F2091" opacity="1.000000" stroke="none" 
	d="
M1338.000000,2001.000000 
	C892.000000,2001.000000 446.500000,2001.000000 1.000000,2001.000000 
	C1.000000,1334.333374 1.000000,667.666687 1.000000,1.000000 
	C667.666687,1.000000 1334.333374,1.000000 2001.000000,1.000000 
	C2001.000000,667.666687 2001.000000,1334.333374 2001.000000,2001.000000 
	C1780.166626,2001.000000 1559.333374,2001.000000 1338.000000,2001.000000 
M840.334412,417.586853 
	C815.905884,412.550995 791.246582,411.292542 766.499329,414.088440 
	C748.638489,416.106323 731.146423,420.024811 714.062439,428.000275 
	C702.429565,434.426361 690.346619,440.166626 679.268311,447.437592 
	C662.217163,458.628662 647.372742,472.493439 634.245178,489.031097 
	C617.109497,508.539001 608.430603,531.839111 603.273254,557.530823 
	C601.859802,569.217102 599.609497,580.876709 599.237061,592.596069 
	C598.730164,608.544189 598.908630,624.596558 600.154785,640.497498 
	C601.796936,661.451965 603.490784,682.547241 607.453735,703.140991 
	C613.403625,734.059631 620.271606,764.891052 628.647156,795.235718 
	C649.481201,870.718140 677.664246,943.553589 711.199402,1014.280151 
	C736.528259,1067.699463 763.962891,1119.980835 798.989990,1167.872437 
	C810.007629,1182.936768 821.690674,1197.410889 836.930359,1208.633667 
	C850.513611,1218.636475 863.205566,1214.871094 872.724182,1203.266235 
	C881.908020,1192.069336 888.509033,1179.391602 891.919189,1165.434937 
	C901.241272,1127.283447 910.153809,1089.029907 918.950928,1050.753052 
	C925.792969,1020.982849 942.460693,999.352783 971.168701,988.330017 
	C980.278381,984.832275 990.459534,984.125122 1000.942261,982.346191 
	C1007.180908,983.043335 1013.618408,982.984253 1019.624817,984.564148 
	C1051.033691,992.826111 1072.656006,1012.180969 1080.908691,1043.815918 
	C1090.492065,1080.551880 1098.452148,1117.712524 1107.041016,1154.706299 
	C1111.143311,1172.374878 1117.598755,1188.934326 1129.169312,1203.170776 
	C1136.737793,1212.483154 1146.761963,1216.781860 1155.293823,1213.388062 
	C1167.152344,1208.671021 1176.304810,1200.268677 1184.475830,1189.718384 
	C1194.016724,1177.171875 1203.557739,1164.625244 1213.631470,1151.675659 
	C1214.779907,1150.042114 1216.054932,1148.482422 1217.057983,1146.764160 
	C1233.843628,1118.005737 1250.658691,1089.264038 1267.291748,1060.417603 
	C1270.006836,1055.708740 1271.885742,1050.517578 1274.740601,1045.097412 
	C1275.104614,1044.544556 1275.552856,1044.029541 1275.821045,1043.433350 
	C1292.867310,1005.535339 1309.995972,967.673706 1326.855225,929.692444 
	C1330.482788,921.520020 1333.132935,912.913757 1336.726685,903.947144 
	C1341.275024,891.475403 1346.297729,879.152954 1350.278564,866.502625 
	C1360.308228,834.631165 1370.933105,802.890503 1379.384888,770.591187 
	C1394.891113,711.333069 1405.673340,651.294617 1402.005981,589.558533 
	C1400.716797,567.854309 1397.204590,546.548767 1389.391479,526.161926 
	C1383.257446,510.156799 1374.822266,495.565643 1362.227051,483.593964 
	C1353.363159,475.168945 1344.794800,466.433167 1335.729980,457.281006 
	C1316.995850,441.875214 1296.405518,429.844666 1272.480347,422.398621 
	C1253.142090,416.174347 1233.378540,412.680878 1212.067871,413.030426 
	C1192.359863,412.493927 1172.981812,414.871735 1153.048950,419.730499 
	C1151.738037,419.943939 1150.408081,420.076630 1149.119141,420.382629 
	C1118.348755,427.688477 1089.373901,439.689270 1061.301514,454.035675 
	C1060.005005,454.698303 1058.827881,455.595001 1057.240112,456.609619 
	C1058.548462,458.291504 1059.585327,459.767365 1060.764648,461.118805 
	C1080.525391,483.762970 1102.414551,504.116516 1126.769165,521.735901 
	C1135.623657,528.141602 1144.894775,533.971558 1154.425537,540.562988 
	C1173.620239,550.664856 1192.814941,560.766724 1212.587646,571.247864 
	C1214.318481,572.140442 1216.049316,573.033020 1217.780273,573.925598 
	C1217.667114,574.230530 1217.554077,574.535461 1217.441040,574.840393 
	C1215.636475,574.840393 1213.831787,574.840393 1211.279297,574.513367 
	C1202.721680,573.824341 1194.104858,573.552429 1185.620239,572.348999 
	C1172.709961,570.517883 1159.891235,568.041260 1146.397827,565.445496 
	C1139.398071,563.502258 1132.277588,561.908386 1125.425171,559.539001 
	C1113.196411,555.310608 1101.129761,550.613953 1088.390015,545.725159 
	C1073.256836,537.877563 1058.123657,530.029907 1042.455688,521.736450 
	C1032.531128,515.060852 1022.560852,508.451874 1012.702271,501.680206 
	C1008.061340,498.492432 1003.635132,494.992035 998.728088,491.124329 
	C983.483154,481.149841 968.238159,471.175323 952.310547,460.954407 
	C951.005615,460.275574 949.716431,459.564178 948.393250,458.922913 
	C933.270874,451.593842 918.143311,444.275482 902.479980,436.501953 
	C887.997253,431.586212 873.576233,426.476349 859.001526,421.850403 
	C853.178833,420.002350 847.017334,419.221985 840.334412,417.586853 
M981.337097,1444.794800 
	C960.875549,1409.531372 940.329834,1374.316040 920.056641,1338.944702 
	C917.455017,1334.405396 914.855164,1332.245850 909.313843,1332.575806 
	C899.681824,1333.149536 889.990845,1332.722534 880.324768,1332.749756 
	C878.906311,1332.753784 877.488342,1332.949829 876.209778,1333.046509 
	C876.209778,1383.592529 876.209778,1433.660645 876.209778,1483.837402 
	C885.672180,1483.837402 894.796448,1483.837402 903.599792,1483.837402 
	C903.599792,1445.915161 903.599792,1408.158813 903.599792,1370.024780 
	C904.690430,1371.831543 905.647644,1373.352905 906.543030,1374.909912 
	C926.700256,1409.963501 946.834534,1445.030396 967.055847,1480.046997 
	C967.948730,1481.593018 969.599792,1483.791138 970.938782,1483.820679 
	C983.867676,1484.106323 996.805420,1483.992065 1009.767761,1483.992065 
	C1009.767761,1433.316162 1009.767761,1383.230225 1009.767761,1333.137695 
	C1000.126831,1333.137695 990.758118,1333.137695 980.514160,1333.137695 
	C981.145874,1369.181030 981.777466,1404.809204 982.370789,1440.437866 
	C982.397156,1442.019409 982.074951,1443.606812 981.942932,1445.115967 
	C981.942932,1445.115967 981.982910,1445.046143 981.337097,1444.794800 
M691.813171,1473.302979 
	C704.508911,1466.282837 714.246948,1456.305542 719.154846,1442.667603 
	C722.271729,1434.006470 724.273804,1424.756836 725.380005,1415.602417 
	C727.138428,1401.049927 725.581055,1386.549561 719.608887,1373.013916 
	C707.784119,1346.213623 685.373230,1334.889282 657.624695,1333.204102 
	C639.359924,1332.095093 620.982849,1332.829834 602.656006,1332.770386 
	C601.898071,1332.767944 601.139038,1333.085938 600.556274,1333.215454 
	C600.556274,1383.602051 600.556274,1433.673950 600.556274,1483.730225 
	C618.390442,1483.730225 635.885315,1484.158325 653.347778,1483.590576 
	C666.568970,1483.160645 679.371765,1480.036499 691.813171,1473.302979 
M1281.069580,1435.335083 
	C1269.405884,1402.280396 1257.690918,1369.243530 1246.160400,1336.142578 
	C1245.048584,1332.950562 1243.701172,1331.817749 1240.251831,1331.909058 
	C1230.100708,1332.178223 1219.932983,1332.182129 1209.782104,1331.906860 
	C1206.308594,1331.812744 1204.991943,1332.990967 1203.885986,1336.167480 
	C1189.300171,1378.055420 1174.555420,1419.888306 1159.851440,1461.735229 
	C1157.290405,1469.023560 1154.733521,1476.313599 1152.109253,1483.789551 
	C1163.968140,1483.789551 1175.258545,1483.789551 1186.609253,1483.789551 
	C1190.299438,1471.765137 1193.935059,1459.917969 1197.549438,1448.140625 
	C1216.175781,1448.140625 1234.302368,1448.140625 1252.722168,1448.140625 
	C1256.038208,1458.956055 1259.268433,1469.745728 1262.728149,1480.461548 
	C1263.172363,1481.837891 1264.784546,1483.818726 1265.896484,1483.845703 
	C1276.495483,1484.103149 1287.103394,1483.999390 1298.277588,1483.999390 
	C1292.490356,1467.656006 1286.900391,1451.869751 1281.069580,1435.335083 
M757.020996,1461.500000 
	C757.020996,1468.926636 757.020996,1476.353394 757.020996,1483.665405 
	C786.432861,1483.665405 815.169067,1483.665405 843.891235,1483.665405 
	C843.891235,1474.882080 843.891235,1466.437256 843.891235,1457.391602 
	C825.604004,1457.391602 807.542847,1457.391602 789.336670,1457.391602 
	C789.336670,1444.195190 789.336670,1431.604980 789.336670,1418.486328 
	C806.321045,1418.486328 823.060852,1418.486328 839.935669,1418.486328 
	C839.935669,1409.418457 839.935669,1400.884277 839.935669,1391.866699 
	C822.830933,1391.866699 806.091309,1391.866699 789.445801,1391.866699 
	C789.445801,1380.644653 789.445801,1369.915405 789.445801,1358.860596 
	C807.750488,1358.860596 825.694031,1358.860596 843.748413,1358.860596 
	C843.748413,1349.988770 843.748413,1341.456421 843.748413,1332.957275 
	C814.757141,1332.957275 786.145996,1332.957275 757.020996,1332.957275 
	C757.020996,1375.618042 757.020996,1418.059082 757.020996,1461.500000 
M1066.529175,1359.286499 
	C1069.103760,1359.286499 1071.678345,1359.286499 1074.814453,1359.286499 
	C1074.814453,1401.372192 1074.814453,1442.578247 1074.814453,1483.588623 
	C1085.786987,1483.588623 1096.177856,1483.588623 1107.084229,1483.588623 
	C1107.084229,1441.962036 1107.084229,1400.749512 1107.084229,1359.164062 
	C1120.905762,1359.164062 1134.199829,1359.164062 1147.560547,1359.164062 
	C1147.560547,1350.221924 1147.560547,1341.662476 1147.560547,1332.986206 
	C1109.495728,1332.986206 1071.739014,1332.986206 1033.807129,1332.986206 
	C1033.807129,1341.792114 1033.807129,1350.339722 1033.807129,1359.286377 
	C1044.589600,1359.286377 1055.056519,1359.286377 1066.529175,1359.286499 
M1317.202881,1367.499878 
	C1317.202881,1406.250366 1317.202881,1445.000854 1317.202881,1483.628906 
	C1348.806641,1483.628906 1379.699585,1483.628906 1410.567383,1483.628906 
	C1410.567383,1474.833496 1410.567383,1466.416382 1410.567383,1457.318359 
	C1390.071167,1457.318359 1369.849731,1457.318359 1349.123291,1457.318359 
	C1349.123291,1415.407593 1349.123291,1374.182007 1349.123291,1333.134155 
	C1338.205811,1333.134155 1327.816284,1333.134155 1317.202881,1333.134155 
	C1317.202881,1344.524048 1317.202881,1355.511963 1317.202881,1367.499878 
M1035.898071,1525.643311 
	C1034.994263,1526.315308 1033.649902,1526.812256 1033.296387,1527.702759 
	C1032.838623,1528.855103 1033.165039,1530.321533 1033.164795,1531.652710 
	C1033.162842,1541.690674 1033.163696,1551.728638 1033.163696,1562.843750 
	C1031.768311,1560.694824 1030.858154,1559.413330 1030.070312,1558.060547 
	C1024.384277,1548.296753 1018.767822,1538.492065 1012.999329,1528.777344 
	C1012.246338,1527.509277 1010.827637,1525.914673 1009.586670,1525.791748 
	C1005.685120,1525.405762 1001.721252,1525.649658 997.672974,1525.649658 
	C997.672974,1543.106201 997.672974,1559.851562 997.672974,1576.803833 
	C1000.873901,1576.803833 1003.816772,1576.803833 1007.188232,1576.803833 
	C1007.188232,1564.536377 1007.188232,1552.393311 1007.188232,1539.039551 
	C1008.679565,1541.496948 1009.542847,1542.860718 1010.349060,1544.257324 
	C1016.080322,1554.185913 1021.753418,1564.148682 1027.581909,1574.019653 
	C1028.312744,1575.257202 1029.774780,1576.752686 1031.017090,1576.870239 
	C1034.911377,1577.238770 1038.862671,1577.005737 1042.851318,1577.005737 
	C1042.851318,1559.625977 1042.851318,1542.872681 1042.851318,1525.636597 
	C1040.695923,1525.636597 1038.731079,1525.636597 1035.898071,1525.643311 
M840.957947,1533.511597 
	C836.097107,1540.883423 835.351257,1549.013306 836.704346,1557.462769 
	C838.850891,1570.867065 847.144897,1577.821167 860.752869,1577.775513 
	C874.260254,1577.730225 882.755371,1570.546021 884.728088,1557.285400 
	C885.141052,1554.509766 885.128235,1551.634155 884.993103,1548.819946 
	C884.515442,1538.875366 881.222473,1530.527588 871.183350,1526.560425 
	C860.541443,1522.354858 848.795837,1524.958252 840.957947,1533.511597 
M1090.578979,1554.901855 
	C1095.657227,1554.901855 1100.735352,1554.901855 1106.250977,1554.901855 
	C1106.250977,1562.746704 1106.250977,1569.821533 1106.250977,1576.732178 
	C1109.992676,1576.732178 1113.263184,1576.732178 1116.720093,1576.732178 
	C1116.720093,1559.697510 1116.720093,1542.942139 1116.720093,1525.910889 
	C1113.137695,1525.910889 1109.710327,1525.910889 1105.829834,1525.910889 
	C1105.829834,1532.566162 1105.829834,1538.987671 1105.829834,1545.513428 
	C1098.972656,1545.513428 1092.570679,1545.513428 1085.603149,1545.513428 
	C1085.603149,1538.824951 1085.603149,1532.431396 1085.603149,1525.858887 
	C1081.774902,1525.858887 1078.517456,1525.858887 1075.068970,1525.858887 
	C1075.068970,1542.967163 1075.068970,1559.850830 1075.068970,1576.789307 
	C1078.631104,1576.789307 1081.908813,1576.789307 1085.723145,1576.789307 
	C1085.723145,1570.625977 1085.891602,1564.666016 1085.654297,1558.722046 
	C1085.529785,1555.599609 1086.560181,1554.400024 1090.578979,1554.901855 
M935.722046,1558.541260 
	C935.722046,1555.127319 935.722046,1551.713501 935.722046,1548.351440 
	C928.461731,1548.351440 922.033264,1548.351440 915.459412,1548.351440 
	C915.459412,1551.363647 915.459412,1554.083984 915.459412,1556.947876 
	C918.702332,1557.091187 921.631042,1557.220581 924.756714,1557.358643 
	C924.756714,1560.937866 924.756714,1564.194702 924.756714,1567.748779 
	C918.652710,1569.010376 912.746765,1569.704346 908.226196,1564.259033 
	C903.906372,1559.055542 903.345276,1546.966431 907.286621,1540.992920 
	C913.719971,1531.242188 922.828186,1533.564697 932.083923,1536.385864 
	C933.234009,1533.583740 934.276917,1531.042969 935.297485,1528.556396 
	C923.876343,1522.086670 907.205139,1524.281982 899.449158,1533.006470 
	C891.951782,1541.440063 891.312561,1559.424561 898.165894,1569.108154 
	C904.655701,1578.278076 920.948242,1580.623901 935.722046,1574.331177 
	C935.722046,1569.489746 935.722046,1564.508057 935.722046,1558.541260 
M1170.121948,1572.309692 
	C1170.206665,1573.755493 1170.291260,1575.201294 1170.377563,1576.673584 
	C1174.094727,1576.673584 1177.475708,1576.673584 1181.261475,1576.673584 
	C1181.261475,1570.097046 1181.261475,1563.853638 1181.261475,1557.781860 
	C1185.298950,1556.308350 1187.551147,1557.642334 1189.276245,1561.006470 
	C1191.013916,1564.394531 1193.263428,1567.519531 1195.282471,1570.763794 
	C1199.568359,1577.650269 1202.079468,1578.551636 1210.643555,1576.174072 
	C1205.872314,1569.037231 1201.124878,1561.936157 1196.431763,1554.916382 
	C1198.454468,1553.381226 1200.026978,1552.407837 1201.335938,1551.158447 
	C1209.081421,1543.765381 1206.555054,1529.858521 1196.302856,1527.407715 
	C1187.972290,1525.416260 1179.082153,1525.765503 1170.121826,1525.051392 
	C1170.121826,1541.421143 1170.121826,1556.382812 1170.121948,1572.309692 
M953.757996,1575.510742 
	C954.555969,1572.801025 955.154907,1570.007202 956.247070,1567.421875 
	C956.702759,1566.342896 958.177063,1565.030884 959.240295,1564.983032 
	C964.697998,1564.737671 970.172607,1564.869385 975.595215,1564.869385 
	C977.001099,1569.168213 978.270447,1573.049683 979.485718,1576.765625 
	C983.506653,1576.765625 987.093628,1576.765625 991.076843,1576.765625 
	C985.951843,1562.181641 980.944275,1547.942993 975.944885,1533.701416 
	C972.965881,1525.215088 972.966370,1525.423218 964.016724,1525.196045 
	C960.473572,1525.106079 959.025024,1526.410522 958.047058,1529.559692 
	C956.176147,1535.584473 953.975159,1541.507202 951.888306,1547.464355 
	C948.495667,1557.149048 945.084839,1566.827393 941.385559,1577.350830 
	C945.924988,1576.938599 949.644897,1576.600708 953.757996,1575.510742 
M1243.037231,1534.585815 
	C1244.312012,1534.510498 1245.586670,1534.435303 1246.886963,1534.358521 
	C1246.886963,1531.258179 1246.886963,1528.543579 1246.886963,1525.880859 
	C1237.082764,1525.880859 1227.656372,1525.880859 1218.085571,1525.880859 
	C1218.085571,1543.002686 1218.085571,1559.877441 1218.085571,1576.872803 
	C1227.848022,1576.872803 1237.311890,1576.872803 1247.019043,1576.872803 
	C1247.019043,1573.959961 1247.019043,1571.185059 1247.019043,1567.939819 
	C1240.945679,1567.939819 1235.034424,1567.939819 1229.011719,1567.939819 
	C1229.011719,1563.406616 1229.011719,1559.346191 1229.011719,1554.823853 
	C1234.703125,1554.823853 1240.124023,1554.823853 1245.723267,1554.823853 
	C1245.723267,1551.637085 1245.723267,1548.921875 1245.723267,1545.757446 
	C1240.021606,1545.757446 1234.602905,1545.757446 1229.006348,1545.757446 
	C1229.006348,1541.898804 1229.006348,1538.495117 1229.006348,1534.586060 
	C1233.561157,1534.586060 1237.846802,1534.586060 1243.037231,1534.585815 
M1150.400757,1525.635254 
	C1143.663452,1525.635254 1136.926147,1525.635254 1130.224854,1525.635254 
	C1130.224854,1543.121704 1130.224854,1559.862549 1130.224854,1576.762329 
	C1140.033936,1576.762329 1149.592773,1576.762329 1159.344116,1576.762329 
	C1159.344116,1573.784546 1159.344116,1571.060913 1159.344116,1567.894287 
	C1153.125122,1567.894287 1147.208740,1567.894287 1141.220215,1567.894287 
	C1141.220215,1563.376831 1141.220215,1559.310181 1141.220215,1554.840332 
	C1146.902954,1554.840332 1152.322632,1554.840332 1157.931885,1554.840332 
	C1157.931885,1551.676025 1157.931885,1548.922119 1157.931885,1545.752441 
	C1152.243164,1545.752441 1146.808228,1545.752441 1141.184692,1545.752441 
	C1141.184692,1541.924683 1141.184692,1538.514648 1141.184692,1534.547607 
	C1147.305664,1534.547607 1153.204590,1534.547607 1159.369873,1534.547607 
	C1159.369873,1531.413696 1159.369873,1528.835449 1159.369873,1525.635254 
	C1156.602173,1525.635254 1153.982422,1525.635254 1150.400757,1525.635254 
M772.646851,1534.000488 
	C776.649170,1534.781738 780.651550,1535.562866 784.788086,1536.370361 
	C785.860596,1533.755005 786.903015,1531.213135 788.503540,1527.310303 
	C781.612305,1526.481201 775.576782,1524.979248 769.607910,1525.208984 
	C759.288208,1525.605957 752.891785,1534.177490 756.195618,1543.344360 
	C757.572083,1547.163330 761.388184,1550.395142 764.721130,1553.130981 
	C767.747009,1555.614502 771.855774,1556.750610 775.016357,1559.111084 
	C776.395752,1560.141235 777.383423,1562.875977 777.095215,1564.592651 
	C776.855957,1566.017822 774.665100,1567.586060 773.012451,1568.174805 
	C771.251831,1568.802124 769.037109,1568.694580 767.145691,1568.303223 
	C763.144958,1567.475464 759.225586,1566.254150 754.870117,1565.086304 
	C754.870117,1567.117310 755.068726,1568.954834 754.827209,1570.732666 
	C754.376587,1574.049561 755.840149,1575.907959 758.976135,1576.120605 
	C764.883728,1576.521606 770.904846,1577.380249 776.703552,1576.652710 
	C782.413940,1575.936035 786.803040,1572.188232 787.930664,1566.050049 
	C789.115784,1559.598511 787.343445,1554.087769 781.451111,1550.563110 
	C777.747253,1548.347656 773.651367,1546.739380 770.131470,1544.284912 
	C768.334290,1543.031616 766.071655,1540.183716 766.447815,1538.653564 
	C766.908386,1536.779785 769.912415,1535.531372 772.646851,1534.000488 
M797.787170,1552.499023 
	C797.787170,1560.592041 797.787170,1568.685181 797.787170,1576.673340 
	C808.664185,1576.673340 818.899536,1576.673340 829.067993,1576.673340 
	C829.067993,1573.604492 829.067993,1570.893433 829.067993,1567.734375 
	C822.082214,1567.734375 815.489746,1567.734375 808.461060,1567.734375 
	C808.461060,1553.537476 808.461060,1539.797485 808.461060,1525.878174 
	C804.740784,1525.878174 801.484558,1525.878174 797.787170,1525.878174 
	C797.787170,1534.575928 797.787170,1543.037354 797.787170,1552.499023 
z"/>
<path fill="#E6E6E6" opacity="1.000000" stroke="none" 
	d="
M1000.150330,982.140991 
	C990.459534,984.125122 980.278381,984.832275 971.168701,988.330017 
	C942.460693,999.352783 925.792969,1020.982849 918.950928,1050.753052 
	C910.153809,1089.029907 901.241272,1127.283447 891.919189,1165.434937 
	C888.509033,1179.391602 881.908020,1192.069336 872.724182,1203.266235 
	C863.205566,1214.871094 850.513611,1218.636475 836.930359,1208.633667 
	C821.690674,1197.410889 810.007629,1182.936768 798.989990,1167.872437 
	C763.962891,1119.980835 736.528259,1067.699463 711.199402,1014.280151 
	C677.664246,943.553589 649.481201,870.718140 628.647156,795.235718 
	C620.271606,764.891052 613.403625,734.059631 607.453735,703.140991 
	C603.490784,682.547241 601.796936,661.451965 600.154785,640.497498 
	C598.908630,624.596558 598.730164,608.544189 599.237061,592.596069 
	C599.609497,580.876709 601.859802,569.217102 603.893433,557.390869 
	C605.471497,557.527710 606.419983,557.843750 607.388672,558.075684 
	C653.145386,569.033508 696.833984,585.400574 737.900513,608.453369 
	C793.139465,639.461975 841.567627,678.737427 882.189392,727.531799 
	C910.674866,761.748230 934.408813,798.894043 953.206787,839.262634 
	C973.652832,883.170471 987.502441,929.039673 994.908936,976.866516 
	C995.437012,980.276245 996.738037,982.030640 1000.150330,982.140991 
z"/>
<path fill="#FFFFFF" opacity="1.000000" stroke="none" 
	d="
M1000.546265,982.243591 
	C996.738037,982.030640 995.437012,980.276245 994.908936,976.866516 
	C987.502441,929.039673 973.652832,883.170471 953.206787,839.262634 
	C934.408813,798.894043 910.674866,761.748230 882.189392,727.531799 
	C841.567627,678.737427 793.139465,639.461975 737.900513,608.453369 
	C696.833984,585.400574 653.145386,569.033508 607.388672,558.075684 
	C606.419983,557.843750 605.471497,557.527710 604.151123,557.100281 
	C608.430603,531.839111 617.109497,508.539001 634.905640,489.050781 
	C636.690979,489.369934 637.803345,489.732208 638.942627,489.959991 
	C683.968384,498.960541 727.765503,511.904236 770.145264,529.737671 
	C862.022461,568.399719 941.671875,624.347168 1008.737976,698.060242 
	C1077.906616,774.084167 1127.024902,861.515137 1156.501953,959.963196 
	C1174.138916,1018.867676 1183.447388,1079.075684 1184.174316,1140.573608 
	C1184.341553,1154.725098 1184.113892,1168.881470 1184.021729,1183.473389 
	C1183.959595,1185.991089 1183.943481,1188.070923 1183.927490,1190.150879 
	C1176.304810,1200.268677 1167.152344,1208.671021 1155.293823,1213.388062 
	C1146.761963,1216.781860 1136.737793,1212.483154 1129.169312,1203.170776 
	C1117.598755,1188.934326 1111.143311,1172.374878 1107.041016,1154.706299 
	C1098.452148,1117.712524 1090.492065,1080.551880 1080.908691,1043.815918 
	C1072.656006,1012.180969 1051.033691,992.826111 1019.624817,984.564148 
	C1013.618408,982.984253 1007.180908,983.043335 1000.546265,982.243591 
z"/>
<path fill="#636FDD" opacity="1.000000" stroke="none" 
	d="
M1213.000000,413.138000 
	C1233.378540,412.680878 1253.142090,416.174347 1272.756104,423.092346 
	C1273.021606,628.416321 1273.007080,833.046570 1273.049072,1037.676880 
	C1273.049561,1040.301147 1273.767944,1042.925293 1274.151123,1045.549438 
	C1271.885742,1050.517578 1270.006836,1055.708740 1267.291748,1060.417603 
	C1250.658691,1089.264038 1233.843628,1118.005737 1217.057983,1146.764160 
	C1216.054932,1148.482422 1214.779907,1150.042114 1213.128052,1151.527100 
	C1212.416504,1149.744995 1212.026367,1148.111572 1212.026245,1146.478149 
	C1212.007812,955.932251 1212.018188,765.386292 1212.027222,574.840393 
	C1213.831787,574.840393 1215.636475,574.840393 1217.441040,574.840393 
	C1217.554077,574.535461 1217.667114,574.230530 1217.780273,573.925598 
	C1216.049316,573.033020 1214.318481,572.140442 1212.385742,570.661255 
	C1212.455933,567.446167 1212.962769,564.817932 1212.965210,562.189087 
	C1213.012451,512.505432 1213.000000,462.821716 1213.000000,413.138000 
z"/>
<path fill="#5DDCFF" opacity="1.000000" stroke="none" 
	d="
M1184.067871,1183.035522 
	C1184.113892,1168.881470 1184.341553,1154.725098 1184.174316,1140.573608 
	C1183.447388,1079.075684 1174.138916,1018.867676 1156.501953,959.963196 
	C1127.024902,861.515137 1077.906616,774.084167 1008.737976,698.060242 
	C941.671875,624.347168 862.022461,568.399719 770.145264,529.737671 
	C727.765503,511.904236 683.968384,498.960541 638.942627,489.959991 
	C637.803345,489.732208 636.690979,489.369934 635.205200,488.886932 
	C647.372742,472.493439 662.217163,458.628662 679.268311,447.437592 
	C690.346619,440.166626 702.429565,434.426361 714.763977,428.043945 
	C735.883057,438.131744 756.650574,447.532318 776.622375,458.395966 
	C797.767151,469.897705 818.154968,482.791138 839.070435,495.350830 
	C859.810608,510.104187 880.353699,524.583374 901.086060,539.339966 
	C917.848816,553.411804 934.422302,567.206299 951.187317,581.271973 
	C959.260498,588.854492 967.218872,596.085327 975.001404,603.500671 
	C982.298889,610.453735 989.410217,617.602112 996.733765,624.959839 
	C1003.468811,632.453186 1010.163147,639.571411 1016.655884,646.869019 
	C1025.120117,656.382385 1033.424561,666.037964 1041.872070,675.946838 
	C1046.986694,682.855591 1052.197510,689.327576 1057.032227,696.069275 
	C1067.375977,710.493042 1077.525024,725.056274 1087.815186,739.891602 
	C1110.278809,775.780457 1129.303711,813.072754 1145.279297,852.316895 
	C1145.930420,854.227234 1146.497437,855.791504 1147.095215,857.343933 
	C1174.517090,928.546753 1188.695435,1002.367554 1189.827759,1078.587646 
	C1190.183105,1102.510864 1188.867554,1126.476685 1187.745850,1150.396240 
	C1187.234009,1161.309448 1185.336670,1172.157715 1184.067871,1183.035522 
z"/>
<path fill="#5773DD" opacity="1.000000" stroke="none" 
	d="
M1274.445923,1045.323486 
	C1273.767944,1042.925293 1273.049561,1040.301147 1273.049072,1037.676880 
	C1273.007080,833.046570 1273.021606,628.416321 1273.047729,423.301666 
	C1296.405518,429.844666 1316.995850,441.875214 1335.740234,457.954895 
	C1335.500366,460.594086 1335.031860,462.559326 1335.031372,464.524719 
	C1334.997192,608.752075 1334.994263,752.979370 1335.051636,897.206726 
	C1335.052612,899.640381 1335.822388,902.073792 1336.233398,904.507324 
	C1333.132935,912.913757 1330.482788,921.520020 1326.855225,929.692444 
	C1309.995972,967.673706 1292.867310,1005.535339 1275.821045,1043.433350 
	C1275.552856,1044.029541 1275.104614,1044.544556 1274.445923,1045.323486 
z"/>
<path fill="#6E6CDD" opacity="1.000000" stroke="none" 
	d="
M1184.021729,1183.473389 
	C1185.336670,1172.157715 1187.234009,1161.309448 1187.745850,1150.396240 
	C1188.867554,1126.476685 1190.183105,1102.510864 1189.827759,1078.587646 
	C1188.695435,1002.367554 1174.517090,928.546753 1147.095215,857.343933 
	C1146.497437,855.791504 1145.930420,854.227234 1145.605469,852.132812 
	C1146.241333,849.379333 1146.950806,847.161743 1146.952393,844.943542 
	C1147.019043,751.908691 1147.022461,658.873779 1147.033691,565.838867 
	C1159.891235,568.041260 1172.709961,570.517883 1185.620239,572.348999 
	C1194.104858,573.552429 1202.721680,573.824341 1211.653320,574.676880 
	C1212.018188,765.386292 1212.007812,955.932251 1212.026245,1146.478149 
	C1212.026367,1148.111572 1212.416504,1149.744995 1212.861572,1151.728516 
	C1203.557739,1164.625244 1194.016724,1177.171875 1184.201660,1189.934570 
	C1183.943481,1188.070923 1183.959595,1185.991089 1184.021729,1183.473389 
z"/>
<path fill="#4C77DD" opacity="1.000000" stroke="none" 
	d="
M1336.479980,904.227234 
	C1335.822388,902.073792 1335.052612,899.640381 1335.051636,897.206726 
	C1334.994263,752.979370 1334.997192,608.752075 1335.031372,464.524719 
	C1335.031860,462.559326 1335.500366,460.594086 1335.922363,458.232483 
	C1344.794800,466.433167 1353.363159,475.168945 1362.227051,483.593964 
	C1374.822266,495.565643 1383.257446,510.156799 1389.391479,526.161926 
	C1397.204590,546.548767 1400.716797,567.854309 1402.005981,589.558533 
	C1405.673340,651.294617 1394.891113,711.333069 1379.384888,770.591187 
	C1370.933105,802.890503 1360.308228,834.631165 1350.278564,866.502625 
	C1346.297729,879.152954 1341.275024,891.475403 1336.479980,904.227234 
z"/>
<path fill="#7B67DD" opacity="1.000000" stroke="none" 
	d="
M1146.715820,565.642212 
	C1147.022461,658.873779 1147.019043,751.908691 1146.952393,844.943542 
	C1146.950806,847.161743 1146.241333,849.379333 1145.535645,851.781250 
	C1129.303711,813.072754 1110.278809,775.780457 1087.996582,739.459229 
	C1088.411011,736.242065 1088.960938,733.786621 1088.962769,731.330811 
	C1089.008667,669.591553 1088.996826,607.852295 1088.995239,546.113037 
	C1101.129761,550.613953 1113.196411,555.310608 1125.425171,559.539001 
	C1132.277588,561.908386 1139.398071,563.502258 1146.715820,565.642212 
z"/>
<path fill="#FEFEFF" opacity="1.000000" stroke="none" 
	d="
M981.915039,1445.191406 
	C982.074951,1443.606812 982.397156,1442.019409 982.370789,1440.437866 
	C981.777466,1404.809204 981.145874,1369.181030 980.514160,1333.137695 
	C990.758118,1333.137695 1000.126831,1333.137695 1009.767761,1333.137695 
	C1009.767761,1383.230225 1009.767761,1433.316162 1009.767761,1483.992065 
	C996.805420,1483.992065 983.867676,1484.106323 970.938782,1483.820679 
	C969.599792,1483.791138 967.948730,1481.593018 967.055847,1480.046997 
	C946.834534,1445.030396 926.700256,1409.963501 906.543030,1374.909912 
	C905.647644,1373.352905 904.690430,1371.831543 903.599792,1370.024780 
	C903.599792,1408.158813 903.599792,1445.915161 903.599792,1483.837402 
	C894.796448,1483.837402 885.672180,1483.837402 876.209778,1483.837402 
	C876.209778,1433.660645 876.209778,1383.592529 876.209778,1333.046509 
	C877.488342,1332.949829 878.906311,1332.753784 880.324768,1332.749756 
	C889.990845,1332.722534 899.681824,1333.149536 909.313843,1332.575806 
	C914.855164,1332.245850 917.455017,1334.405396 920.056641,1338.944702 
	C940.329834,1374.316040 960.875549,1409.531372 981.758545,1445.117920 
	C982.315125,1445.280396 982.450317,1445.119629 982.585571,1444.958984 
	C982.362061,1445.036377 982.138550,1445.113892 981.915039,1445.191406 
z"/>
<path fill="#FDFDFE" opacity="1.000000" stroke="none" 
	d="
M691.503723,1473.505127 
	C679.371765,1480.036499 666.568970,1483.160645 653.347778,1483.590576 
	C635.885315,1484.158325 618.390442,1483.730225 600.556274,1483.730225 
	C600.556274,1433.673950 600.556274,1383.602051 600.556274,1333.215454 
	C601.139038,1333.085938 601.898071,1332.767944 602.656006,1332.770386 
	C620.982849,1332.829834 639.359924,1332.095093 657.624695,1333.204102 
	C685.373230,1334.889282 707.784119,1346.213623 719.608887,1373.013916 
	C725.581055,1386.549561 727.138428,1401.049927 725.380005,1415.602417 
	C724.273804,1424.756836 722.271729,1434.006470 719.154846,1442.667603 
	C714.246948,1456.305542 704.508911,1466.282837 691.503723,1473.505127 
M680.555786,1369.951782 
	C666.758301,1356.423950 649.470703,1359.197876 632.608765,1359.090576 
	C632.608765,1392.108398 632.608765,1424.516357 632.608765,1458.049927 
	C642.018188,1457.374268 651.194763,1457.417969 660.112244,1455.919922 
	C675.712646,1453.298950 686.313660,1443.754150 689.617676,1428.420898 
	C691.858704,1418.020630 692.024902,1406.975098 691.653564,1396.269043 
	C691.322449,1386.723267 687.864014,1377.715454 680.555786,1369.951782 
z"/>
<path fill="#FDFDFE" opacity="1.000000" stroke="none" 
	d="
M1281.190063,1435.709229 
	C1286.900391,1451.869751 1292.490356,1467.656006 1298.277588,1483.999390 
	C1287.103394,1483.999390 1276.495483,1484.103149 1265.896484,1483.845703 
	C1264.784546,1483.818726 1263.172363,1481.837891 1262.728149,1480.461548 
	C1259.268433,1469.745728 1256.038208,1458.956055 1252.722168,1448.140625 
	C1234.302368,1448.140625 1216.175781,1448.140625 1197.549438,1448.140625 
	C1193.935059,1459.917969 1190.299438,1471.765137 1186.609253,1483.789551 
	C1175.258545,1483.789551 1163.968140,1483.789551 1152.109253,1483.789551 
	C1154.733521,1476.313599 1157.290405,1469.023560 1159.851440,1461.735229 
	C1174.555420,1419.888306 1189.300171,1378.055420 1203.885986,1336.167480 
	C1204.991943,1332.990967 1206.308594,1331.812744 1209.782104,1331.906860 
	C1219.932983,1332.182129 1230.100708,1332.178223 1240.251831,1331.909058 
	C1243.701172,1331.817749 1245.048584,1332.950562 1246.160400,1336.142578 
	C1257.690918,1369.243530 1269.405884,1402.280396 1281.190063,1435.709229 
M1240.682251,1406.809082 
	C1235.598022,1390.422607 1230.513794,1374.036133 1225.119263,1356.649292 
	C1218.518555,1378.594238 1212.201782,1399.595337 1205.753906,1421.031982 
	C1212.746094,1421.031982 1219.062134,1421.031982 1225.378174,1421.031982 
	C1231.787354,1421.031982 1238.196533,1421.031982 1244.984985,1421.031982 
	C1243.501465,1416.130493 1242.206909,1411.853271 1240.682251,1406.809082 
z"/>
<path fill="#FEFEFF" opacity="1.000000" stroke="none" 
	d="
M757.020996,1461.000000 
	C757.020996,1418.059082 757.020996,1375.618042 757.020996,1332.957275 
	C786.145996,1332.957275 814.757141,1332.957275 843.748413,1332.957275 
	C843.748413,1341.456421 843.748413,1349.988770 843.748413,1358.860596 
	C825.694031,1358.860596 807.750488,1358.860596 789.445801,1358.860596 
	C789.445801,1369.915405 789.445801,1380.644653 789.445801,1391.866699 
	C806.091309,1391.866699 822.830933,1391.866699 839.935669,1391.866699 
	C839.935669,1400.884277 839.935669,1409.418457 839.935669,1418.486328 
	C823.060852,1418.486328 806.321045,1418.486328 789.336670,1418.486328 
	C789.336670,1431.604980 789.336670,1444.195190 789.336670,1457.391602 
	C807.542847,1457.391602 825.604004,1457.391602 843.891235,1457.391602 
	C843.891235,1466.437256 843.891235,1474.882080 843.891235,1483.665405 
	C815.169067,1483.665405 786.432861,1483.665405 757.020996,1483.665405 
	C757.020996,1476.353394 757.020996,1468.926636 757.020996,1461.000000 
z"/>
<path fill="#6E6CDD" opacity="1.000000" stroke="none" 
	d="
M1212.533936,413.084229 
	C1213.000000,462.821716 1213.012451,512.505432 1212.965210,562.189087 
	C1212.962769,564.817932 1212.455933,567.446167 1212.096802,570.471680 
	C1192.814941,560.766724 1173.620239,550.664856 1154.206299,539.839783 
	C1153.948486,499.283417 1153.910034,459.450287 1153.871582,419.617126 
	C1172.981812,414.871735 1192.359863,412.493927 1212.533936,413.084229 
z"/>
<path fill="#8464DD" opacity="1.000000" stroke="none" 
	d="
M1088.692627,545.919067 
	C1088.996826,607.852295 1089.008667,669.591553 1088.962769,731.330811 
	C1088.960938,733.786621 1088.411011,736.242065 1087.935059,739.130005 
	C1077.525024,725.056274 1067.375977,710.493042 1057.032227,696.069275 
	C1052.197510,689.327576 1046.986694,682.855591 1041.979736,675.487793 
	C1042.341919,672.090393 1042.954590,669.466980 1042.957642,666.842834 
	C1043.012085,618.622681 1042.993530,570.402466 1042.990479,522.182251 
	C1058.123657,530.029907 1073.256836,537.877563 1088.692627,545.919067 
z"/>
<path fill="#FDFDFE" opacity="1.000000" stroke="none" 
	d="
M1066.026245,1359.286377 
	C1055.056519,1359.286377 1044.589600,1359.286377 1033.807129,1359.286377 
	C1033.807129,1350.339722 1033.807129,1341.792114 1033.807129,1332.986206 
	C1071.739014,1332.986206 1109.495728,1332.986206 1147.560547,1332.986206 
	C1147.560547,1341.662476 1147.560547,1350.221924 1147.560547,1359.164062 
	C1134.199829,1359.164062 1120.905762,1359.164062 1107.084229,1359.164062 
	C1107.084229,1400.749512 1107.084229,1441.962036 1107.084229,1483.588623 
	C1096.177856,1483.588623 1085.786987,1483.588623 1074.814453,1483.588623 
	C1074.814453,1442.578247 1074.814453,1401.372192 1074.814453,1359.286499 
	C1071.678345,1359.286499 1069.103760,1359.286499 1066.026245,1359.286377 
z"/>
<path fill="#FDFDFE" opacity="1.000000" stroke="none" 
	d="
M1317.202881,1366.999756 
	C1317.202881,1355.511963 1317.202881,1344.524048 1317.202881,1333.134155 
	C1327.816284,1333.134155 1338.205811,1333.134155 1349.123291,1333.134155 
	C1349.123291,1374.182007 1349.123291,1415.407593 1349.123291,1457.318359 
	C1369.849731,1457.318359 1390.071167,1457.318359 1410.567383,1457.318359 
	C1410.567383,1466.416382 1410.567383,1474.833496 1410.567383,1483.628906 
	C1379.699585,1483.628906 1348.806641,1483.628906 1317.202881,1483.628906 
	C1317.202881,1445.000854 1317.202881,1406.250366 1317.202881,1366.999756 
z"/>
<path fill="#7B67DD" opacity="1.000000" stroke="none" 
	d="
M1153.460205,419.673828 
	C1153.910034,459.450287 1153.948486,499.283417 1153.981445,539.590454 
	C1144.894775,533.971558 1135.623657,528.141602 1126.769165,521.735901 
	C1102.414551,504.116516 1080.525391,483.762970 1060.764648,461.118805 
	C1059.585327,459.767365 1058.548462,458.291504 1057.240112,456.609619 
	C1058.827881,455.595001 1060.005005,454.698303 1061.301514,454.035675 
	C1089.373901,439.689270 1118.348755,427.688477 1149.119141,420.382629 
	C1150.408081,420.076630 1151.738037,419.943939 1153.460205,419.673828 
z"/>
<path fill="#8C61DD" opacity="1.000000" stroke="none" 
	d="
M1042.723145,521.959351 
	C1042.993530,570.402466 1043.012085,618.622681 1042.957642,666.842834 
	C1042.954590,669.466980 1042.341919,672.090393 1041.905396,675.173218 
	C1033.424561,666.037964 1025.120117,656.382385 1016.655884,646.869019 
	C1010.163147,639.571411 1003.468811,632.453186 996.972046,624.577026 
	C997.719910,621.052429 998.906982,618.208069 998.917847,615.359253 
	C999.075073,574.117615 999.074402,532.875366 999.111572,491.633301 
	C1003.635132,494.992035 1008.061340,498.492432 1012.702271,501.680206 
	C1022.560852,508.451874 1032.531128,515.060852 1042.723145,521.959351 
z"/>
<path fill="#955EDD" opacity="1.000000" stroke="none" 
	d="
M998.919800,491.378815 
	C999.074402,532.875366 999.075073,574.117615 998.917847,615.359253 
	C998.906982,618.208069 997.719910,621.052429 996.841675,624.281738 
	C989.410217,617.602112 982.298889,610.453735 975.001404,603.500671 
	C967.218872,596.085327 959.260498,588.854492 951.536621,581.100708 
	C952.129578,578.634583 952.940186,576.611572 952.944092,574.586975 
	C953.017700,536.791748 952.995483,498.996246 952.993225,461.200806 
	C968.238159,471.175323 983.483154,481.149841 998.919800,491.378815 
z"/>
<path fill="#A757DD" opacity="1.000000" stroke="none" 
	d="
M900.896790,539.062561 
	C880.353699,524.583374 859.810608,510.104187 839.388672,495.110168 
	C840.006226,492.416656 840.924133,490.239929 840.934204,488.058990 
	C841.042053,464.691589 841.006409,441.323486 841.010071,417.955597 
	C847.017334,419.221985 853.178833,420.002350 859.001526,421.850403 
	C873.576233,426.476349 887.997253,431.586212 902.744324,437.200317 
	C903.005676,469.366119 903.045776,500.833771 902.909119,532.300659 
	C902.899353,534.557495 901.597717,536.808716 900.896790,539.062561 
z"/>
<path fill="#9D5BDD" opacity="1.000000" stroke="none" 
	d="
M901.086060,539.339966 
	C901.597717,536.808716 902.899353,534.557495 902.909119,532.300659 
	C903.045776,500.833771 903.005676,469.366119 903.012939,437.426483 
	C918.143311,444.275482 933.270874,451.593842 948.393250,458.922913 
	C949.716431,459.564178 951.005615,460.275574 952.651855,461.077606 
	C952.995483,498.996246 953.017700,536.791748 952.944092,574.586975 
	C952.940186,576.611572 952.129578,578.634583 951.345093,580.829590 
	C934.422302,567.206299 917.848816,553.411804 901.086060,539.339966 
z"/>
<path fill="#B552DD" opacity="1.000000" stroke="none" 
	d="
M840.672241,417.771240 
	C841.006409,441.323486 841.042053,464.691589 840.934204,488.058990 
	C840.924133,490.239929 840.006226,492.416656 839.191650,494.835999 
	C818.154968,482.791138 797.767151,469.897705 776.622375,458.395966 
	C756.650574,447.532318 735.883057,438.131744 715.106567,427.946930 
	C731.146423,420.024811 748.638489,416.106323 766.499329,414.088440 
	C791.246582,411.292542 815.905884,412.550995 840.672241,417.771240 
z"/>
<path fill="#FBFAFC" opacity="1.000000" stroke="none" 
	d="
M1036.332031,1525.639893 
	C1038.731079,1525.636597 1040.695923,1525.636597 1042.851318,1525.636597 
	C1042.851318,1542.872681 1042.851318,1559.625977 1042.851318,1577.005737 
	C1038.862671,1577.005737 1034.911377,1577.238770 1031.017090,1576.870239 
	C1029.774780,1576.752686 1028.312744,1575.257202 1027.581909,1574.019653 
	C1021.753418,1564.148682 1016.080322,1554.185913 1010.349060,1544.257324 
	C1009.542847,1542.860718 1008.679565,1541.496948 1007.188232,1539.039551 
	C1007.188232,1552.393311 1007.188232,1564.536377 1007.188232,1576.803833 
	C1003.816772,1576.803833 1000.873901,1576.803833 997.672974,1576.803833 
	C997.672974,1559.851562 997.672974,1543.106201 997.672974,1525.649658 
	C1001.721252,1525.649658 1005.685120,1525.405762 1009.586670,1525.791748 
	C1010.827637,1525.914673 1012.246338,1527.509277 1012.999329,1528.777344 
	C1018.767822,1538.492065 1024.384277,1548.296753 1030.070312,1558.060547 
	C1030.858154,1559.413330 1031.768311,1560.694824 1033.163696,1562.843750 
	C1033.163696,1551.728638 1033.162842,1541.690674 1033.164795,1531.652710 
	C1033.165039,1530.321533 1032.838623,1528.855103 1033.296387,1527.702759 
	C1033.649902,1526.812256 1034.994263,1526.315308 1036.332031,1525.639893 
z"/>
<path fill="#FBFAFC" opacity="1.000000" stroke="none" 
	d="
M841.173584,1533.221924 
	C848.795837,1524.958252 860.541443,1522.354858 871.183350,1526.560425 
	C881.222473,1530.527588 884.515442,1538.875366 884.993103,1548.819946 
	C885.128235,1551.634155 885.141052,1554.509766 884.728088,1557.285400 
	C882.755371,1570.546021 874.260254,1577.730225 860.752869,1577.775513 
	C847.144897,1577.821167 838.850891,1570.867065 836.704346,1557.462769 
	C835.351257,1549.013306 836.097107,1540.883423 841.173584,1533.221924 
M873.462769,1547.211792 
	C871.837341,1537.243164 867.867615,1533.479126 859.497559,1533.970215 
	C852.347717,1534.389893 848.267212,1539.403320 847.838684,1548.595947 
	C847.700378,1551.562622 847.720703,1554.598633 848.189148,1557.519409 
	C849.342041,1564.708008 853.867310,1568.552612 860.689392,1568.549438 
	C867.550110,1568.546265 871.872681,1564.798828 873.041931,1557.443604 
	C873.531738,1554.362061 873.428223,1551.186157 873.462769,1547.211792 
z"/>
<path fill="#FBFAFC" opacity="1.000000" stroke="none" 
	d="
M1090.089355,1554.902100 
	C1086.560181,1554.400024 1085.529785,1555.599609 1085.654297,1558.722046 
	C1085.891602,1564.666016 1085.723145,1570.625977 1085.723145,1576.789307 
	C1081.908813,1576.789307 1078.631104,1576.789307 1075.068970,1576.789307 
	C1075.068970,1559.850830 1075.068970,1542.967163 1075.068970,1525.858887 
	C1078.517456,1525.858887 1081.774902,1525.858887 1085.603149,1525.858887 
	C1085.603149,1532.431396 1085.603149,1538.824951 1085.603149,1545.513428 
	C1092.570679,1545.513428 1098.972656,1545.513428 1105.829834,1545.513428 
	C1105.829834,1538.987671 1105.829834,1532.566162 1105.829834,1525.910889 
	C1109.710327,1525.910889 1113.137695,1525.910889 1116.720093,1525.910889 
	C1116.720093,1542.942139 1116.720093,1559.697510 1116.720093,1576.732178 
	C1113.263184,1576.732178 1109.992676,1576.732178 1106.250977,1576.732178 
	C1106.250977,1569.821533 1106.250977,1562.746704 1106.250977,1554.901855 
	C1100.735352,1554.901855 1095.657227,1554.901855 1090.089355,1554.902100 
z"/>
<path fill="#FBFAFC" opacity="1.000000" stroke="none" 
	d="
M935.722046,1559.033813 
	C935.722046,1564.508057 935.722046,1569.489746 935.722046,1574.331177 
	C920.948242,1580.623901 904.655701,1578.278076 898.165894,1569.108154 
	C891.312561,1559.424561 891.951782,1541.440063 899.449158,1533.006470 
	C907.205139,1524.281982 923.876343,1522.086670 935.297485,1528.556396 
	C934.276917,1531.042969 933.234009,1533.583740 932.083923,1536.385864 
	C922.828186,1533.564697 913.719971,1531.242188 907.286621,1540.992920 
	C903.345276,1546.966431 903.906372,1559.055542 908.226196,1564.259033 
	C912.746765,1569.704346 918.652710,1569.010376 924.756714,1567.748779 
	C924.756714,1564.194702 924.756714,1560.937866 924.756714,1557.358643 
	C921.631042,1557.220581 918.702332,1557.091187 915.459412,1556.947876 
	C915.459412,1554.083984 915.459412,1551.363647 915.459412,1548.351440 
	C922.033264,1548.351440 928.461731,1548.351440 935.722046,1548.351440 
	C935.722046,1551.713501 935.722046,1555.127319 935.722046,1559.033813 
z"/>
<path fill="#FBFAFC" opacity="1.000000" stroke="none" 
	d="
M1170.121826,1571.827026 
	C1170.121826,1556.382812 1170.121826,1541.421143 1170.121826,1525.051392 
	C1179.082153,1525.765503 1187.972290,1525.416260 1196.302856,1527.407715 
	C1206.555054,1529.858521 1209.081421,1543.765381 1201.335938,1551.158447 
	C1200.026978,1552.407837 1198.454468,1553.381226 1196.431763,1554.916382 
	C1201.124878,1561.936157 1205.872314,1569.037231 1210.643555,1576.174072 
	C1202.079468,1578.551636 1199.568359,1577.650269 1195.282471,1570.763794 
	C1193.263428,1567.519531 1191.013916,1564.394531 1189.276245,1561.006470 
	C1187.551147,1557.642334 1185.298950,1556.308350 1181.261475,1557.781860 
	C1181.261475,1563.853638 1181.261475,1570.097046 1181.261475,1576.673584 
	C1177.475708,1576.673584 1174.094727,1576.673584 1170.377563,1576.673584 
	C1170.291260,1575.201294 1170.206665,1573.755493 1170.121826,1571.827026 
M1194.023071,1544.414429 
	C1195.822510,1536.474731 1191.079224,1533.046753 1181.397827,1535.328003 
	C1181.397827,1539.561157 1181.397827,1543.794556 1181.397827,1549.726318 
	C1186.038940,1547.985107 1189.860840,1546.551270 1194.023071,1544.414429 
z"/>
<path fill="#FBFAFC" opacity="1.000000" stroke="none" 
	d="
M953.561401,1575.886841 
	C949.644897,1576.600708 945.924988,1576.938599 941.385559,1577.350830 
	C945.084839,1566.827393 948.495667,1557.149048 951.888306,1547.464355 
	C953.975159,1541.507202 956.176147,1535.584473 958.047058,1529.559692 
	C959.025024,1526.410522 960.473572,1525.106079 964.016724,1525.196045 
	C972.966370,1525.423218 972.965881,1525.215088 975.944885,1533.701416 
	C980.944275,1547.942993 985.951843,1562.181641 991.076843,1576.765625 
	C987.093628,1576.765625 983.506653,1576.765625 979.485718,1576.765625 
	C978.270447,1573.049683 977.001099,1569.168213 975.595215,1564.869385 
	C970.172607,1564.869385 964.697998,1564.737671 959.240295,1564.983032 
	C958.177063,1565.030884 956.702759,1566.342896 956.247070,1567.421875 
	C955.154907,1570.007202 954.555969,1572.801025 953.561401,1575.886841 
M970.131348,1546.261108 
	C968.976440,1542.473145 967.821594,1538.685181 966.361450,1533.896118 
	C964.036011,1541.579224 961.990784,1548.336914 959.853027,1555.400146 
	C964.455322,1555.400146 968.498779,1555.400146 972.958984,1555.400146 
	C972.023254,1552.353516 971.203186,1549.683472 970.131348,1546.261108 
z"/>
<path fill="#FBFAFC" opacity="1.000000" stroke="none" 
	d="
M1242.584717,1534.585938 
	C1237.846802,1534.586060 1233.561157,1534.586060 1229.006348,1534.586060 
	C1229.006348,1538.495117 1229.006348,1541.898804 1229.006348,1545.757446 
	C1234.602905,1545.757446 1240.021606,1545.757446 1245.723267,1545.757446 
	C1245.723267,1548.921875 1245.723267,1551.637085 1245.723267,1554.823853 
	C1240.124023,1554.823853 1234.703125,1554.823853 1229.011719,1554.823853 
	C1229.011719,1559.346191 1229.011719,1563.406616 1229.011719,1567.939819 
	C1235.034424,1567.939819 1240.945679,1567.939819 1247.019043,1567.939819 
	C1247.019043,1571.185059 1247.019043,1573.959961 1247.019043,1576.872803 
	C1237.311890,1576.872803 1227.848022,1576.872803 1218.085571,1576.872803 
	C1218.085571,1559.877441 1218.085571,1543.002686 1218.085571,1525.880859 
	C1227.656372,1525.880859 1237.082764,1525.880859 1246.886963,1525.880859 
	C1246.886963,1528.543579 1246.886963,1531.258179 1246.886963,1534.358521 
	C1245.586670,1534.435303 1244.312012,1534.510498 1242.584717,1534.585938 
z"/>
<path fill="#FBFAFC" opacity="1.000000" stroke="none" 
	d="
M1150.881592,1525.635254 
	C1153.982422,1525.635254 1156.602173,1525.635254 1159.369873,1525.635254 
	C1159.369873,1528.835449 1159.369873,1531.413696 1159.369873,1534.547607 
	C1153.204590,1534.547607 1147.305664,1534.547607 1141.184692,1534.547607 
	C1141.184692,1538.514648 1141.184692,1541.924683 1141.184692,1545.752441 
	C1146.808228,1545.752441 1152.243164,1545.752441 1157.931885,1545.752441 
	C1157.931885,1548.922119 1157.931885,1551.676025 1157.931885,1554.840332 
	C1152.322632,1554.840332 1146.902954,1554.840332 1141.220215,1554.840332 
	C1141.220215,1559.310181 1141.220215,1563.376831 1141.220215,1567.894287 
	C1147.208740,1567.894287 1153.125122,1567.894287 1159.344116,1567.894287 
	C1159.344116,1571.060913 1159.344116,1573.784546 1159.344116,1576.762329 
	C1149.592773,1576.762329 1140.033936,1576.762329 1130.224854,1576.762329 
	C1130.224854,1559.862549 1130.224854,1543.121704 1130.224854,1525.635254 
	C1136.926147,1525.635254 1143.663452,1525.635254 1150.881592,1525.635254 
z"/>
<path fill="#FBFAFC" opacity="1.000000" stroke="none" 
	d="
M772.231750,1534.006592 
	C769.912415,1535.531372 766.908386,1536.779785 766.447815,1538.653564 
	C766.071655,1540.183716 768.334290,1543.031616 770.131470,1544.284912 
	C773.651367,1546.739380 777.747253,1548.347656 781.451111,1550.563110 
	C787.343445,1554.087769 789.115784,1559.598511 787.930664,1566.050049 
	C786.803040,1572.188232 782.413940,1575.936035 776.703552,1576.652710 
	C770.904846,1577.380249 764.883728,1576.521606 758.976135,1576.120605 
	C755.840149,1575.907959 754.376587,1574.049561 754.827209,1570.732666 
	C755.068726,1568.954834 754.870117,1567.117310 754.870117,1565.086304 
	C759.225586,1566.254150 763.144958,1567.475464 767.145691,1568.303223 
	C769.037109,1568.694580 771.251831,1568.802124 773.012451,1568.174805 
	C774.665100,1567.586060 776.855957,1566.017822 777.095215,1564.592651 
	C777.383423,1562.875977 776.395752,1560.141235 775.016357,1559.111084 
	C771.855774,1556.750610 767.747009,1555.614502 764.721130,1553.130981 
	C761.388184,1550.395142 757.572083,1547.163330 756.195618,1543.344360 
	C752.891785,1534.177490 759.288208,1525.605957 769.607910,1525.208984 
	C775.576782,1524.979248 781.612305,1526.481201 788.503540,1527.310303 
	C786.903015,1531.213135 785.860596,1533.755005 784.788086,1536.370361 
	C780.651550,1535.562866 776.649170,1534.781738 772.231750,1534.006592 
z"/>
<path fill="#FBFAFC" opacity="1.000000" stroke="none" 
	d="
M797.787170,1551.998901 
	C797.787170,1543.037354 797.787170,1534.575928 797.787170,1525.878174 
	C801.484558,1525.878174 804.740784,1525.878174 808.461060,1525.878174 
	C808.461060,1539.797485 808.461060,1553.537476 808.461060,1567.734375 
	C815.489746,1567.734375 822.082214,1567.734375 829.067993,1567.734375 
	C829.067993,1570.893433 829.067993,1573.604492 829.067993,1576.673340 
	C818.899536,1576.673340 808.664185,1576.673340 797.787170,1576.673340 
	C797.787170,1568.685181 797.787170,1560.592041 797.787170,1551.998901 
z"/>
<path fill="#4F2091" opacity="1.000000" stroke="none" 
	d="
M981.928955,1445.153687 
	C982.138550,1445.113892 982.362061,1445.036377 982.585571,1444.958984 
	C982.450317,1445.119629 982.315125,1445.280396 982.081421,1445.243652 
	C981.982910,1445.046143 981.942932,1445.115967 981.928955,1445.153687 
z"/>
<path fill="#512292" opacity="1.000000" stroke="none" 
	d="
M680.805908,1370.203857 
	C687.864014,1377.715454 691.322449,1386.723267 691.653564,1396.269043 
	C692.024902,1406.975098 691.858704,1418.020630 689.617676,1428.420898 
	C686.313660,1443.754150 675.712646,1453.298950 660.112244,1455.919922 
	C651.194763,1457.417969 642.018188,1457.374268 632.608765,1458.049927 
	C632.608765,1424.516357 632.608765,1392.108398 632.608765,1359.090576 
	C649.470703,1359.197876 666.758301,1356.423950 680.805908,1370.203857 
z"/>
<path fill="#512292" opacity="1.000000" stroke="none" 
	d="
M1240.797363,1407.192627 
	C1242.206909,1411.853271 1243.501465,1416.130493 1244.984985,1421.031982 
	C1238.196533,1421.031982 1231.787354,1421.031982 1225.378174,1421.031982 
	C1219.062134,1421.031982 1212.746094,1421.031982 1205.753906,1421.031982 
	C1212.201782,1399.595337 1218.518555,1378.594238 1225.119263,1356.649292 
	C1230.513794,1374.036133 1235.598022,1390.422607 1240.797363,1407.192627 
z"/>
<path fill="#512292" opacity="1.000000" stroke="none" 
	d="
M873.528687,1547.632568 
	C873.428223,1551.186157 873.531738,1554.362061 873.041931,1557.443604 
	C871.872681,1564.798828 867.550110,1568.546265 860.689392,1568.549438 
	C853.867310,1568.552612 849.342041,1564.708008 848.189148,1557.519409 
	C847.720703,1554.598633 847.700378,1551.562622 847.838684,1548.595947 
	C848.267212,1539.403320 852.347717,1534.389893 859.497559,1533.970215 
	C867.867615,1533.479126 871.837341,1537.243164 873.528687,1547.632568 
z"/>
<path fill="#512292" opacity="1.000000" stroke="none" 
	d="
M1193.852783,1544.765869 
	C1189.860840,1546.551270 1186.038940,1547.985107 1181.397827,1549.726318 
	C1181.397827,1543.794556 1181.397827,1539.561157 1181.397827,1535.328003 
	C1191.079224,1533.046753 1195.822510,1536.474731 1193.852783,1544.765869 
z"/>
<path fill="#512292" opacity="1.000000" stroke="none" 
	d="
M970.257202,1546.637207 
	C971.203186,1549.683472 972.023254,1552.353516 972.958984,1555.400146 
	C968.498779,1555.400146 964.455322,1555.400146 959.853027,1555.400146 
	C961.990784,1548.336914 964.036011,1541.579224 966.361450,1533.896118 
	C967.821594,1538.685181 968.976440,1542.473145 970.257202,1546.637207 
z"/>
</svg>