<svg xmlns="http://www.w3.org/2000/svg" xmlns:xlink="http://www.w3.org/1999/xlink" version="1.1" id="Layer_1" x="0px" y="0px" width="100%" viewBox="0 0 193 155" enable-background="new 0 0 193 155" xml:space="preserve">
<path fill="none" opacity="1.000000" stroke="none" d=" M114.000000,156.000000   C76.000000,156.000000 38.500004,156.000000 1.000005,156.000000   C1.000003,104.333336 1.000003,52.666676 1.000002,1.000012   C65.333321,1.000008 129.666641,1.000008 193.999969,1.000004   C193.999985,52.666656 193.999985,104.333313 194.000000,155.999985   C167.500000,156.000000 141.000000,156.000000 114.000000,156.000000  M84.359085,142.160095   C80.589073,145.723816 80.308434,150.161880 84.177444,151.207993   C87.646233,152.145889 91.984497,152.304733 95.152725,150.957642   C96.911560,150.209793 97.636444,145.695648 97.731293,142.842590   C97.793495,140.971222 96.220482,137.748291 94.809814,137.392822   C91.791534,136.632309 88.401794,137.317535 85.174095,137.548828   C85.073296,137.556046 85.081627,139.086060 85.017151,140.558426   C85.007217,140.993408 84.997276,141.428391 84.359085,142.160095  M143.997208,140.623230   C143.996414,141.021561 143.995605,141.419876 143.340652,142.092896   C142.402725,144.317688 140.278961,146.852341 140.763184,148.705521   C141.924103,153.148422 146.256073,151.851227 149.614288,152.039139   C152.606415,152.206558 155.933701,151.915085 156.304718,148.479874   C156.671738,145.081665 156.802979,140.254120 154.830414,138.393204   C152.766998,136.446579 148.076782,137.256989 144.523911,137.040588   C144.410049,137.033646 144.176834,138.986496 143.997208,140.623230  M114.383636,7.149778   C109.094238,5.670643 103.822159,4.124076 98.503487,2.758980   C97.144989,2.410307 95.546249,2.292178 94.215050,2.651071   C79.910454,6.507611 65.664299,10.583640 51.335407,14.345362   C48.041595,15.210076 46.847343,16.478514 46.897011,20.048035   C47.121845,36.207825 46.959225,52.372681 47.039341,68.535202   C47.049858,70.656944 47.271851,72.928345 48.044765,74.872459   C56.411896,95.918282 70.245682,111.904991 91.600525,120.457939   C94.325455,121.549332 98.243164,121.442192 101.011642,120.361618   C121.767097,112.260460 135.231995,96.747681 143.960464,76.726852   C144.723267,74.977158 144.952667,72.875404 144.961227,70.935112   C145.036270,53.939388 144.895981,36.941921 145.094818,19.948189   C145.135452,16.475603 144.161987,14.991307 140.749466,14.173409   C132.172623,12.117750 123.696129,9.643318 114.383636,7.149778  M4.177655,133.164429   C4.129336,135.822601 4.042633,138.480713 4.039291,141.138947   C4.024209,153.135284 4.032703,153.135178 16.079952,152.036011   C16.410856,152.005814 16.747902,152.013962 17.073132,151.954910   C21.744812,151.106720 24.065725,147.822174 24.089293,142.038956   C24.113930,135.993500 22.017031,132.408340 17.419430,132.036026   C13.180634,131.692780 8.870230,132.233749 4.177655,133.164429  M125.419746,131.794312   C122.040741,131.777954 119.583488,133.443024 119.939819,136.796478   C120.466293,141.751160 117.129265,147.621597 122.931366,151.481766   C123.448433,151.825775 124.184265,151.977112 124.820824,151.983414   C129.126205,152.026154 133.432205,152.005722 137.738007,152.005722   C137.975220,151.595810 138.212433,151.185898 138.449646,150.775986   C137.510864,149.993332 136.675781,148.790741 135.608795,148.527206   C134.038345,148.139313 132.302475,148.419037 130.637070,148.418243   C123.172630,148.414688 123.172737,148.415192 123.208984,140.816345   C123.211372,140.316742 123.258362,139.811691 123.202919,139.318359   C122.869843,136.354431 124.046837,135.031631 127.149101,135.190750   C130.615601,135.368561 134.098267,135.231537 137.573898,135.231537   C137.841797,134.834427 138.109680,134.437302 138.377579,134.040192   C137.504318,133.285614 136.680664,131.961502 135.748749,131.880325   C132.608231,131.606812 129.429214,131.775146 125.419746,131.794312  M188.609299,146.560287   C189.638977,144.388168 191.743591,141.992584 191.353363,140.115662   C191.048996,138.651642 187.696854,137.710587 185.589645,136.786743   C184.751129,136.419113 183.617737,136.710846 182.618866,136.724365   C176.386093,136.808670 175.277267,137.999222 175.306473,144.559555   C175.333572,150.647278 176.654343,152.040375 182.512192,152.048325   C183.956436,152.050278 185.400894,151.892838 186.901489,151.805389   C186.621780,150.470581 183.006226,148.640747 178.226532,147.256683   C178.883301,144.944305 178.906769,141.278305 180.366745,140.568985   C182.506638,139.529327 185.674896,140.606293 188.404938,140.781326   C188.366135,141.476883 188.327347,142.172440 188.288544,142.867996   C186.415558,143.031174 184.503494,143.021683 182.686584,143.432693   C181.819992,143.628708 181.134186,144.623886 180.366486,145.257065   C181.187973,145.818787 181.957809,146.736618 182.842163,146.864914   C184.466187,147.100494 186.157700,146.870865 188.609299,146.560287  M37.242008,146.928391   C40.938568,147.014816 43.647327,145.549911 43.541073,141.577713   C43.430534,137.445145 40.341412,136.594177 36.812523,136.735550   C35.648552,136.782181 34.479851,136.707947 33.315598,136.750885   C28.071709,136.944275 27.009945,138.272141 27.027752,144.558426   C27.043961,150.280777 28.342644,151.874725 33.202877,152.038391   C34.963665,152.097687 36.728127,152.047928 38.657043,152.047928   C38.554428,150.699768 38.646446,149.538742 38.434143,149.480133   C35.848579,148.766373 33.218281,148.214661 29.708975,147.418976   C30.433716,144.936020 30.484987,141.245453 31.955374,140.548416   C34.149509,139.508255 37.343842,140.577942 40.112644,140.750000   C40.094154,141.411972 40.075665,142.073944 40.057175,142.735916   C38.704212,142.948212 37.308239,143.018539 36.010101,143.411789   C34.650810,143.823547 33.385498,144.545502 32.079109,145.131866   C33.517826,145.730850 34.956539,146.329834 37.242008,146.928391  M59.313396,145.505997   C60.111923,147.658005 57.409744,151.814499 62.964745,152.118256   C62.964745,148.594269 63.557716,145.606934 62.785275,143.028687   C62.114826,140.790863 60.204536,137.774277 58.299397,137.304855   C54.737427,136.427200 50.535072,136.425964 47.125816,137.595444   C45.949558,137.998947 46.260738,142.965363 46.043526,145.858780   C45.897171,147.808350 46.015640,149.777802 46.015640,151.941895   C47.314297,151.881393 48.785305,151.945679 48.808353,151.792343   C49.359966,148.121918 49.756382,144.428162 50.220898,140.391861   C53.667831,141.059158 58.583557,137.831528 59.313396,145.505997  M69.944412,134.349396   C69.027100,135.167709 68.130203,136.010559 67.185486,136.795898   C66.529755,137.341019 65.808235,137.806961 65.116104,138.308273   C65.846199,138.938660 66.500198,139.712387 67.330841,140.153397   C67.978180,140.497086 68.845268,140.426880 69.524979,140.527344   C70.819191,151.550323 70.819191,151.550323 73.356750,151.510666   C73.356750,149.704651 73.356758,147.892838 73.356758,146.081009   C73.356758,144.299042 73.356750,142.517090 73.356750,141.254486   C75.956749,140.249695 77.915123,139.492859 79.873489,138.736023   C77.958527,137.751450 76.043556,136.766876 73.883965,135.656525   C73.378197,134.713303 72.610825,133.282211 71.843460,131.851120   C71.215538,132.400589 70.587608,132.950073 69.944412,134.349396  M165.293503,136.787643   C160.188644,138.181442 158.398758,142.557632 160.138367,150.113785   C160.339157,150.985901 161.918015,151.540771 163.311630,152.581543   C164.205368,140.856491 164.205368,140.856491 174.556870,139.748154   C172.858597,138.275604 172.074600,137.078064 171.063889,136.839020   C169.490143,136.466797 167.762390,136.745667 165.293503,136.787643  M107.653770,148.859299   C106.728935,147.382980 105.157837,145.969894 105.005966,144.417923   C104.620811,140.482315 104.968254,136.480133 104.790665,132.514969   C104.753296,131.680557 103.723923,130.890594 103.151642,130.080139   C102.493477,130.624741 101.275208,131.158051 101.263969,131.715698   C101.154007,137.170547 100.929756,142.662094 101.488480,148.065613   C101.639175,149.522949 104.312019,150.755219 105.948318,151.920700   C106.032669,151.980774 107.261765,150.433655 107.653770,148.859299  z"/>
<path fill="#805EA8" opacity="1.000000" stroke="none" d=" M114.781525,7.243286   C123.696129,9.643318 132.172623,12.117750 140.749466,14.173409   C144.161987,14.991307 145.135452,16.475603 145.094818,19.948189   C144.895981,36.941921 145.036270,53.939388 144.961227,70.935112   C144.952667,72.875404 144.723267,74.977158 143.960464,76.726852   C135.231995,96.747681 121.767097,112.260460 101.011642,120.361618   C98.243164,121.442192 94.325455,121.549332 91.600525,120.457939   C70.245682,111.904991 56.411896,95.918282 48.044765,74.872459   C47.271851,72.928345 47.049858,70.656944 47.039341,68.535202   C46.959225,52.372681 47.121845,36.207825 46.897011,20.048035   C46.847343,16.478514 48.041595,15.210076 51.335407,14.345362   C65.664299,10.583640 79.910454,6.507611 94.215050,2.651071   C95.546249,2.292178 97.144989,2.410307 98.503487,2.758980   C103.822159,4.124076 109.094238,5.670643 114.781525,7.243286  M125.001846,61.302666   C125.668480,57.087177 126.743797,52.887787 126.910637,48.652607   C127.195747,41.415337 123.784607,36.703827 116.688515,35.503704   C111.895515,34.693085 106.830330,35.513901 101.886482,35.564274   C99.191574,35.591732 96.312279,36.152012 93.830330,35.414577   C78.227608,30.778713 66.341606,39.240482 68.205643,54.024319   C68.510544,56.442516 69.279289,58.984268 70.509026,61.070885   C74.795212,68.343697 76.161804,76.159027 76.349205,84.488792   C76.448013,88.880981 77.585777,93.376091 79.012222,97.566788   C79.930748,100.265297 81.482658,103.534447 86.067635,102.610214   C86.355278,98.890526 86.391449,95.226578 86.975243,91.652069   C87.772469,86.770729 88.321602,81.664162 90.278183,77.228004   C91.403473,74.676628 95.061684,71.806953 97.645447,71.743172   C100.164772,71.680977 103.744995,74.479019 105.098953,76.975952   C107.003807,80.488815 107.566940,84.839630 108.184128,88.910896   C108.872482,93.451614 108.978729,98.080574 109.331291,102.581177   C113.522118,103.702988 115.247475,101.003181 116.011322,98.442207   C117.467712,93.559303 118.729378,88.490906 119.068916,83.432198   C119.577255,75.858681 120.336624,68.509743 125.001846,61.302666  M63.494316,25.832134   C61.577698,28.198725 59.661079,30.565315 57.983097,32.637245   C60.124187,34.959625 62.825089,37.889210 65.413635,40.696930   C67.951042,37.845825 70.517914,34.961613 72.845650,32.346104   C70.647270,29.481369 68.633949,26.734987 66.414597,24.166637   C66.205894,23.925114 64.699379,24.805042 63.494316,25.832134  M82.999336,21.536383   C82.008415,22.004139 81.017494,22.471893 81.326767,22.325905   C83.374146,24.851023 84.749016,26.546705 86.111557,28.227179   C87.754173,26.860947 89.613228,25.314695 91.474739,23.766396   C90.290627,22.675688 88.995132,21.738205 88.027588,20.536646   C86.152336,18.207815 84.809006,18.937361 82.999336,21.536383  z"/>
<path fill="#474747" opacity="1.000000" stroke="none" d=" M4.384511,132.774841   C8.870230,132.233749 13.180634,131.692780 17.419430,132.036026   C22.017031,132.408340 24.113930,135.993500 24.089293,142.038956   C24.065725,147.822174 21.744812,151.106720 17.073132,151.954910   C16.747902,152.013962 16.410856,152.005814 16.079952,152.036011   C4.032703,153.135178 4.024209,153.135284 4.039291,141.138947   C4.042633,138.480713 4.129336,135.822601 4.384511,132.774841  M14.287616,148.398315   C19.948778,147.598969 21.267712,145.892563 20.595926,140.236771   C20.024094,135.422455 17.180143,134.376343 8.029183,135.724823   C8.029183,139.848160 8.029183,143.999390 8.029183,148.404114   C10.057130,148.404114 11.694779,148.404114 14.287616,148.398315  z"/>
<path fill="#3F3F3F" opacity="1.000000" stroke="none" d=" M125.842331,131.784393   C129.429214,131.775146 132.608231,131.606812 135.748749,131.880325   C136.680664,131.961502 137.504318,133.285614 138.377579,134.040192   C138.109680,134.437302 137.841797,134.834427 137.573898,135.231537   C134.098267,135.231537 130.615601,135.368561 127.149101,135.190750   C124.046837,135.031631 122.869843,136.354431 123.202919,139.318359   C123.258362,139.811691 123.211372,140.316742 123.208984,140.816345   C123.172737,148.415192 123.172630,148.414688 130.637070,148.418243   C132.302475,148.419037 134.038345,148.139313 135.608795,148.527206   C136.675781,148.790741 137.510864,149.993332 138.449646,150.775986   C138.212433,151.185898 137.975220,151.595810 137.738007,152.005722   C133.432205,152.005722 129.126205,152.026154 124.820824,151.983414   C124.184265,151.977112 123.448433,151.825775 122.931366,151.481766   C117.129265,147.621597 120.466293,141.751160 119.939819,136.796478   C119.583488,133.443024 122.040741,131.777954 125.842331,131.784393  z"/>
<path fill="#4D4D4D" opacity="1.000000" stroke="none" d=" M188.215179,146.697723   C186.157700,146.870865 184.466187,147.100494 182.842163,146.864914   C181.957809,146.736618 181.187973,145.818787 180.366486,145.257065   C181.134186,144.623886 181.819992,143.628708 182.686584,143.432693   C184.503494,143.021683 186.415558,143.031174 188.288544,142.867996   C188.327347,142.172440 188.366135,141.476883 188.404938,140.781326   C185.674896,140.606293 182.506638,139.529327 180.366745,140.568985   C178.906769,141.278305 178.883301,144.944305 178.226532,147.256683   C183.006226,148.640747 186.621780,150.470581 186.901489,151.805389   C185.400894,151.892838 183.956436,152.050278 182.512192,152.048325   C176.654343,152.040375 175.333572,150.647278 175.306473,144.559555   C175.277267,137.999222 176.386093,136.808670 182.618866,136.724365   C183.617737,136.710846 184.751129,136.419113 185.589645,136.786743   C187.696854,137.710587 191.048996,138.651642 191.353363,140.115662   C191.743591,141.992584 189.638977,144.388168 188.215179,146.697723  z"/>
<path fill="#484848" opacity="1.000000" stroke="none" d=" M36.818630,146.928604   C34.956539,146.329834 33.517826,145.730850 32.079109,145.131866   C33.385498,144.545502 34.650810,143.823547 36.010101,143.411789   C37.308239,143.018539 38.704212,142.948212 40.057175,142.735916   C40.075665,142.073944 40.094154,141.411972 40.112644,140.750000   C37.343842,140.577942 34.149509,139.508255 31.955374,140.548416   C30.484987,141.245453 30.433716,144.936020 29.708975,147.418976   C33.218281,148.214661 35.848579,148.766373 38.434143,149.480133   C38.646446,149.538742 38.554428,150.699768 38.657043,152.047928   C36.728127,152.047928 34.963665,152.097687 33.202877,152.038391   C28.342644,151.874725 27.043961,150.280777 27.027752,144.558426   C27.009945,138.272141 28.071709,136.944275 33.315598,136.750885   C34.479851,136.707947 35.648552,136.782181 36.812523,136.735550   C40.341412,136.594177 43.430534,137.445145 43.541073,141.577713   C43.647327,145.549911 40.938568,147.014816 36.818630,146.928604  z"/>
<path fill="#434343" opacity="1.000000" stroke="none" d=" M143.999252,140.025742   C144.176834,138.986496 144.410049,137.033646 144.523911,137.040588   C148.076782,137.256989 152.766998,136.446579 154.830414,138.393204   C156.802979,140.254120 156.671738,145.081665 156.304718,148.479874   C155.933701,151.915085 152.606415,152.206558 149.614288,152.039139   C146.256073,151.851227 141.924103,153.148422 140.763184,148.705521   C140.278961,146.852341 142.402725,144.317688 144.106781,142.008301   C147.130280,141.923721 149.387665,141.923721 151.645050,141.923721   C151.790314,142.568848 151.935562,143.213974 152.080826,143.859100   C148.995728,144.661697 145.910629,145.464294 142.825531,146.266891   C142.909775,146.864090 142.994003,147.461288 143.078247,148.058487   C144.949051,148.363052 146.811066,148.835938 148.692612,148.934021   C151.764877,149.094193 153.528641,148.061447 153.464737,144.379486   C153.399750,140.635468 151.589142,139.868256 148.474823,140.053024   C146.988739,140.141174 145.491455,140.040741 143.999252,140.025742  z"/>
<path fill="#4C4C4C" opacity="1.000000" stroke="none" d=" M59.311440,145.033600   C58.583557,137.831528 53.667831,141.059158 50.220898,140.391861   C49.756382,144.428162 49.359966,148.121918 48.808353,151.792343   C48.785305,151.945679 47.314297,151.881393 46.015640,151.941895   C46.015640,149.777802 45.897171,147.808350 46.043526,145.858780   C46.260738,142.965363 45.949558,137.998947 47.125816,137.595444   C50.535072,136.425964 54.737427,136.427200 58.299397,137.304855   C60.204536,137.774277 62.114826,140.790863 62.785275,143.028687   C63.557716,145.606934 62.964745,148.594269 62.964745,152.118256   C57.409744,151.814499 60.111923,147.658005 59.311440,145.033600  z"/>
<path fill="#3E3E3E" opacity="1.000000" stroke="none" d=" M85.039078,139.906158   C85.081627,139.086060 85.073296,137.556046 85.174095,137.548828   C88.401794,137.317535 91.791534,136.632309 94.809814,137.392822   C96.220482,137.748291 97.793495,140.971222 97.731293,142.842590   C97.636444,145.695648 96.911560,150.209793 95.152725,150.957642   C91.984497,152.304733 87.646233,152.145889 84.177444,151.207993   C80.308434,150.161880 80.589073,145.723816 85.115097,142.063797   C88.134346,141.967499 90.397575,141.967499 92.660812,141.967499   C92.835884,142.558060 93.010956,143.148621 93.186028,143.739182   C90.320740,144.649261 87.455452,145.559341 84.590164,146.469437   C84.654602,146.998184 84.719040,147.526947 84.783485,148.055710   C85.961700,148.373322 87.134262,148.933563 88.319244,148.961197   C91.378387,149.032501 94.573181,149.656067 94.831482,144.682587   C95.086227,139.777786 92.402672,139.775909 88.992653,140.009659   C87.683311,140.099426 86.357422,139.947800 85.039078,139.906158  z"/>
<path fill="#3C3C3C" opacity="1.000000" stroke="none" d=" M69.952049,133.924469   C70.587608,132.950073 71.215538,132.400589 71.843460,131.851120   C72.610825,133.282211 73.378197,134.713303 73.883965,135.656525   C76.043556,136.766876 77.958527,137.751450 79.873489,138.736023   C77.915123,139.492859 75.956749,140.249695 73.356750,141.254486   C73.356750,142.517090 73.356758,144.299042 73.356758,146.081009   C73.356758,147.892838 73.356750,149.704651 73.356750,151.510666   C70.819191,151.550323 70.819191,151.550323 69.524979,140.527344   C68.845268,140.426880 67.978180,140.497086 67.330841,140.153397   C66.500198,139.712387 65.846199,138.938660 65.116104,138.308273   C65.808235,137.806961 66.529755,137.341019 67.185486,136.795898   C68.130203,136.010559 69.027100,135.167709 69.952049,133.924469  z"/>
<path fill="#494949" opacity="1.000000" stroke="none" d=" M165.696716,136.768127   C167.762390,136.745667 169.490143,136.466797 171.063889,136.839020   C172.074600,137.078064 172.858597,138.275604 174.556870,139.748154   C164.205368,140.856491 164.205368,140.856491 163.311630,152.581543   C161.918015,151.540771 160.339157,150.985901 160.138367,150.113785   C158.398758,142.557632 160.188644,138.181442 165.696716,136.768127  z"/>
<path fill="#555555" opacity="1.000000" stroke="none" d=" M107.805832,149.247055   C107.261765,150.433655 106.032669,151.980774 105.948318,151.920700   C104.312019,150.755219 101.639175,149.522949 101.488480,148.065613   C100.929756,142.662094 101.154007,137.170547 101.263969,131.715698   C101.275208,131.158051 102.493477,130.624741 103.151642,130.080139   C103.723923,130.890594 104.753296,131.680557 104.790665,132.514969   C104.968254,136.480133 104.620811,140.482315 105.005966,144.417923   C105.157837,145.969894 106.728935,147.382980 107.805832,149.247055  z"/>
<path fill="none" opacity="1.000000" stroke="none" d=" M85.028114,140.232300   C86.357422,139.947800 87.683311,140.099426 88.992653,140.009659   C92.402672,139.775909 95.086227,139.777786 94.831482,144.682587   C94.573181,149.656067 91.378387,149.032501 88.319244,148.961197   C87.134262,148.933563 85.961700,148.373322 84.783485,148.055710   C84.719040,147.526947 84.654602,146.998184 84.590164,146.469437   C87.455452,145.559341 90.320740,144.649261 93.186028,143.739182   C93.010956,143.148621 92.835884,142.558060 92.660812,141.967499   C90.397575,141.967499 88.134346,141.967499 85.429230,141.915436   C84.997276,141.428391 85.007217,140.993408 85.028114,140.232300  z"/>
<path fill="none" opacity="1.000000" stroke="none" d=" M143.998230,140.324493   C145.491455,140.040741 146.988739,140.141174 148.474823,140.053024   C151.589142,139.868256 153.399750,140.635468 153.464737,144.379486   C153.528641,148.061447 151.764877,149.094193 148.692612,148.934021   C146.811066,148.835938 144.949051,148.363052 143.078247,148.058487   C142.994003,147.461288 142.909775,146.864090 142.825531,146.266891   C145.910629,145.464294 148.995728,144.661697 152.080826,143.859100   C151.935562,143.213974 151.790314,142.568848 151.645050,141.923721   C149.387665,141.923721 147.130280,141.923721 144.433853,141.870972   C143.995605,141.419876 143.996414,141.021561 143.998230,140.324493  z"/>
<path fill="#FCFBFD" opacity="1.000000" stroke="none" d=" M124.815308,61.644600   C120.336624,68.509743 119.577255,75.858681 119.068916,83.432198   C118.729378,88.490906 117.467712,93.559303 116.011322,98.442207   C115.247475,101.003181 113.522118,103.702988 109.331291,102.581177   C108.978729,98.080574 108.872482,93.451614 108.184128,88.910896   C107.566940,84.839630 107.003807,80.488815 105.098953,76.975952   C103.744995,74.479019 100.164772,71.680977 97.645447,71.743172   C95.061684,71.806953 91.403473,74.676628 90.278183,77.228004   C88.321602,81.664162 87.772469,86.770729 86.975243,91.652069   C86.391449,95.226578 86.355278,98.890526 86.067635,102.610214   C81.482658,103.534447 79.930748,100.265297 79.012222,97.566788   C77.585777,93.376091 76.448013,88.880981 76.349205,84.488792   C76.161804,76.159027 74.795212,68.343697 70.509026,61.070885   C69.279289,58.984268 68.510544,56.442516 68.205643,54.024319   C66.341606,39.240482 78.227608,30.778713 93.830330,35.414577   C96.312279,36.152012 99.191574,35.591732 101.886482,35.564274   C106.830330,35.513901 111.895515,34.693085 116.688515,35.503704   C123.784607,36.703827 127.195747,41.415337 126.910637,48.652607   C126.743797,52.887787 125.668480,57.087177 124.815308,61.644600  M77.856186,47.777325   C78.807861,49.069416 79.759537,50.361507 80.661812,51.586521   C83.605293,49.075111 85.804276,47.198917 87.559959,45.700947   C85.406517,43.328316 83.201942,40.899353 81.289009,38.791714   C79.487648,40.901173 77.410728,43.333313 75.252686,45.860451   C75.957047,46.383560 76.617287,46.873909 77.856186,47.777325  z"/>
<path fill="#F5F3F8" opacity="1.000000" stroke="none" d=" M63.644867,25.498215   C64.699379,24.805042 66.205894,23.925114 66.414597,24.166637   C68.633949,26.734987 70.647270,29.481369 72.845650,32.346104   C70.517914,34.961613 67.951042,37.845825 65.413635,40.696930   C62.825089,37.889210 60.124187,34.959625 57.983097,32.637245   C59.661079,30.565315 61.577698,28.198725 63.644867,25.498215  z"/>
<path fill="#EFEBF4" opacity="1.000000" stroke="none" d=" M83.265625,21.291039   C84.809006,18.937361 86.152336,18.207815 88.027588,20.536646   C88.995132,21.738205 90.290627,22.675688 91.474739,23.766396   C89.613228,25.314695 87.754173,26.860947 86.111557,28.227179   C84.749016,26.546705 83.374146,24.851023 81.326767,22.325905   C81.017494,22.471893 82.008415,22.004139 83.265625,21.291039  z"/>
<path fill="none" opacity="1.000000" stroke="none" d=" M13.810022,148.401215   C11.694779,148.404114 10.057130,148.404114 8.029183,148.404114   C8.029183,143.999390 8.029183,139.848160 8.029183,135.724823   C17.180143,134.376343 20.024094,135.422455 20.595926,140.236771   C21.267712,145.892563 19.948778,147.598969 13.810022,148.401215  z"/>

</svg>