<svg xmlns="http://www.w3.org/2000/svg" width="91" height="70" viewBox="0 0 91 70" fill="none">
<path d="M0.259145 69.125V48.5874C0.259145 42.7557 1.40012 36.7972 3.68208 30.712C5.96404 24.6268 8.97496 18.8902 12.7148 13.5022C16.4547 8.11425 20.5115 3.61372 24.8853 0.000618547L42.7607 10.5547C39.2109 16.1328 36.2951 21.9645 34.0131 28.0497C31.7946 34.1349 30.6853 40.9174 30.6853 48.3972V69.125H0.259145ZM48.2754 69.125V48.5874C48.2754 42.7557 49.4164 36.7972 51.6983 30.712C53.9803 24.6268 56.9912 18.8902 60.7311 13.5022C64.471 8.11425 68.5278 3.61372 72.9015 0.000618547L90.7769 10.5547C87.2272 16.1328 84.3113 21.9645 82.0294 28.0497C79.8108 34.1349 78.7015 40.9174 78.7015 48.3972V69.125H48.2754Z" fill="#FFFFFF"/>
</svg>