<svg version="1.1" id="Layer_1" xmlns="http://www.w3.org/2000/svg" xmlns:xlink="http://www.w3.org/1999/xlink" x="0px" y="0px"
	 width="100%" viewBox="0 0 1920 61" enable-background="new 0 0 1920 61" xml:space="preserve">
<path fill="#7D5BA6" opacity="1.000000" stroke="#FFFFFF" 
	d="
M1909.000000,62.000008 
	C1901.645752,62.000000 1894.291504,62.000000 1886.349121,61.686928 
	C1867.106567,42.748798 1848.436401,24.139595 1829.834717,5.462093 
	C1828.620483,4.242976 1827.932617,2.499566 1827.000000,0.999998 
	C1840.354248,1.000000 1853.708496,1.000000 1867.560059,1.341159 
	C1884.733765,18.486338 1901.410156,35.290356 1918.093628,52.101547 
	C1914.806519,55.679638 1911.903198,58.839828 1909.000000,62.000008 
z"/>
<path fill="#7D5BA6" opacity="1.000000" stroke="#FFFFFF" 
	d="
M1575.000000,0.999986 
	C1588.354248,1.000000 1601.708496,1.000000 1615.695068,1.328699 
	C1615.133545,3.025691 1614.015869,4.470472 1612.734009,5.750765 
	C1595.327515,23.135704 1577.891235,40.490738 1560.489136,57.879940 
	C1559.220459,59.147568 1558.158203,60.621788 1557.000000,61.999977 
	C1549.645752,62.000000 1542.291504,62.000000 1534.314331,61.704529 
	C1530.729614,58.364834 1527.767700,55.320614 1524.138672,51.590675 
	C1526.014038,50.094494 1527.562622,49.077980 1528.849609,47.798401 
	C1543.117798,33.610996 1557.354980,19.392447 1571.567627,5.149404 
	C1572.829956,3.884351 1573.861328,2.388604 1575.000000,0.999986 
z"/>
<path fill="#7D5BA6" opacity="1.000000" stroke="#FFFFFF" 
	d="
M1228.000000,1.000004 
	C1241.354248,1.000000 1254.708496,1.000000 1268.593994,1.333265 
	C1285.833740,18.465132 1302.542236,35.263733 1319.308105,52.120140 
	C1315.902466,55.734917 1312.951172,58.867443 1310.000000,61.999985 
	C1302.645752,62.000000 1295.291504,62.000000 1287.389404,61.671661 
	C1268.258301,42.761353 1249.660156,24.194244 1231.124268,5.565151 
	C1229.845215,4.279764 1229.030640,2.532482 1228.000000,1.000004 
z"/>
<path fill="#7D5BA6" opacity="1.000000" stroke="#FFFFFF" 
	d="
M976.000000,0.999996 
	C989.354248,1.000000 1002.708435,1.000000 1016.793640,1.286004 
	C1010.557312,8.708802 1003.620178,15.875333 996.616150,22.975952 
	C983.764893,36.004478 970.874268,48.994152 958.000000,62.000015 
	C950.645752,62.000000 943.291504,62.000000 935.349854,61.686752 
	C931.826843,58.323994 928.891296,55.274475 925.803467,52.066803 
	C941.595825,36.290836 956.989685,20.936329 972.340088,5.538449 
	C973.704651,4.169725 974.786682,2.519460 976.000000,0.999996 
z"/>
<path fill="#7D5BA6" opacity="1.000000" stroke="#FFFFFF" 
	d="
M1627.000000,0.999981 
	C1640.354248,1.000000 1653.708496,1.000000 1667.629150,1.321988 
	C1684.923218,18.440931 1701.651001,35.237888 1719.439087,53.099533 
	C1715.580811,56.388962 1712.290283,59.194370 1708.999878,61.999893 
	C1701.645752,62.000000 1694.291504,62.000000 1686.427856,61.662048 
	C1667.367676,42.755440 1648.803345,24.200298 1630.295288,5.589070 
	C1628.984375,4.270677 1628.088745,2.539310 1627.000000,0.999981 
z"/>
<path fill="#7D5BA6" opacity="1.000000" stroke="#FFFFFF" 
	d="
M1158.000000,62.000000 
	C1150.645752,62.000000 1143.291504,62.000000 1135.282349,61.725098 
	C1131.452271,58.607643 1128.277100,55.765091 1124.770996,52.626247 
	C1138.419922,39.033154 1151.048584,26.505798 1163.613403,13.914669 
	C1167.825928,9.693245 1171.875732,5.309522 1176.000000,0.999998 
	C1189.354248,1.000000 1202.708496,1.000000 1216.627686,1.343363 
	C1215.989624,3.047444 1214.856201,4.477934 1213.573120,5.758312 
	C1196.172485,23.121124 1178.742065,40.454144 1161.353394,57.828995 
	C1160.098877,59.082527 1159.111572,60.603413 1158.000000,62.000000 
z"/>
<path fill="#7D5BA6" opacity="1.000000" stroke="#FFFFFF" 
	d="
M1428.000000,0.999979 
	C1441.020874,1.000000 1454.041870,1.000000 1467.720703,1.272639 
	C1485.200684,18.347164 1502.022583,35.149052 1518.876099,51.982555 
	C1515.664429,55.607201 1512.832153,58.803585 1510.000000,61.999985 
	C1502.645752,62.000000 1495.291504,62.000000 1487.325195,61.698547 
	C1468.019043,42.767128 1449.307373,24.154390 1430.671143,5.466688 
	C1429.482788,4.275020 1428.876953,2.502352 1428.000000,0.999979 
z"/>
<path fill="#7D5BA6" opacity="1.000000" stroke="#FFFFFF" 
	d="
M1357.000000,62.000000 
	C1349.645752,62.000000 1342.291504,62.000000 1334.394287,61.669518 
	C1330.655029,58.729752 1327.458496,56.120468 1323.418945,52.822979 
	C1341.889038,34.619221 1358.944580,17.809629 1376.000000,1.000020 
	C1389.020874,1.000000 1402.041870,1.000000 1415.826050,1.265155 
	C1409.685791,8.646152 1402.834351,15.813559 1395.867310,22.866688 
	C1382.947144,35.946342 1369.959473,48.959274 1357.000000,62.000000 
z"/>
<path fill="#7D5BA6" opacity="1.000000" stroke="#FFFFFF" 
	d="
M1775.000000,1.000001 
	C1788.020874,1.000000 1801.041870,1.000000 1814.872070,1.232630 
	C1814.479248,2.998738 1813.420776,4.675589 1812.053589,6.044062 
	C1793.394043,24.720926 1774.691772,43.355236 1756.000000,61.999996 
	C1748.645752,62.000000 1741.291504,62.000000 1733.441650,61.658993 
	C1730.152588,58.340530 1727.359009,55.363079 1723.834839,51.606815 
	C1727.092163,48.676285 1730.164062,46.156162 1732.957275,43.357750 
	C1747.011475,29.278416 1760.993042,15.126489 1775.000000,1.000001 
z"/>
<path fill="#7D5BA6" opacity="1.000000" stroke="#FFFFFF" 
	d="
M1029.000000,1.000004 
	C1042.020874,1.000000 1055.041870,1.000000 1068.664673,1.306557 
	C1086.070190,18.307589 1102.873779,35.002064 1119.710815,51.729702 
	C1116.468140,55.552887 1113.734009,58.776436 1111.000000,61.999992 
	C1103.645752,62.000000 1096.291504,62.000000 1088.257568,61.744316 
	C1068.834473,42.822987 1050.072021,24.176237 1031.393799,5.445608 
	C1030.255005,4.303653 1029.782471,2.497241 1029.000000,1.000004 
z"/>
<path fill="#7D5BA6" opacity="1.000000" stroke="#FFFFFF" 
	d="
M65.000000,0.999999 
	C78.020897,1.000000 91.041786,1.000000 104.571884,1.338743 
	C121.317223,17.563410 137.553360,33.449337 153.874710,49.418625 
	C149.256607,54.311550 145.628296,58.155773 142.000000,62.000000 
	C136.645065,62.000000 131.290146,62.000000 125.272141,61.731880 
	C110.714050,47.656067 96.757515,33.909485 82.952087,20.012781 
	C76.811066,13.831156 70.974670,7.346897 65.000000,0.999999 
z"/>
<path fill="#7D5BA6" opacity="1.000000" stroke="#FFFFFF" 
	d="
M258.000000,1.000002 
	C270.687561,1.000000 283.375122,1.000000 296.571869,1.338755 
	C313.317139,17.563496 329.553223,33.449482 345.874481,49.418812 
	C341.256866,54.311234 337.628448,58.155613 334.000000,62.000000 
	C328.645081,62.000000 323.290131,62.000000 317.272644,61.731487 
	C297.865692,42.807217 279.102478,24.170191 260.422577,5.450048 
	C259.278015,4.302997 258.792267,2.498569 258.000000,1.000002 
z"/>
<path fill="#7D5BA6" opacity="1.000000" stroke="#FFFFFF" 
	d="
M379.000000,62.000008 
	C373.645081,62.000000 368.290131,62.000000 362.323303,61.699066 
	C357.877502,58.008839 354.043579,54.619545 350.022797,51.065067 
	C352.272888,48.673454 353.473755,47.327278 354.747437,46.053921 
	C368.378510,32.426498 382.032227,18.821741 395.641724,5.172843 
	C396.895294,3.915656 397.886810,2.397156 399.000000,0.999995 
	C411.687561,1.000000 424.375122,1.000000 437.867432,1.236651 
	C437.464325,3.004884 436.396362,4.676237 435.027405,6.046952 
	C416.375946,24.722290 397.682861,43.356033 379.000000,62.000008 
z"/>
<path fill="#7D5BA6" opacity="1.000000" stroke="#FFFFFF" 
	d="
M526.000000,62.000000 
	C520.645081,62.000000 515.290161,62.000000 509.272644,61.731483 
	C489.865692,42.807205 471.102478,24.170195 452.422546,5.450062 
	C451.277985,4.303033 450.792297,2.498558 450.000000,0.999997 
	C462.687561,1.000000 475.375122,1.000000 488.571899,1.338739 
	C505.317200,17.563457 521.553345,33.449440 537.874634,49.418774 
	C533.256653,54.311550 529.628296,58.155777 526.000000,62.000000 
z"/>
<path fill="#7D5BA6" opacity="1.000000" stroke="#FFFFFF" 
	d="
M591.000000,0.999997 
	C603.687561,1.000000 616.375122,1.000000 629.867432,1.236636 
	C629.464294,3.004856 628.396362,4.676226 627.027405,6.046945 
	C608.375977,24.722296 589.682861,43.356022 571.000000,62.000008 
	C565.645081,62.000000 560.290100,62.000000 554.323303,61.699051 
	C549.877441,58.008911 546.043396,54.619713 542.022583,51.065380 
	C544.272888,48.673443 545.473755,47.327278 546.747437,46.053917 
	C560.378479,32.426495 574.032288,18.821764 587.641785,5.172860 
	C588.895325,3.915676 589.886841,2.397155 591.000000,0.999997 
z"/>
<path fill="#7D5BA6" opacity="1.000000" stroke="#FFFFFF" 
	d="
M187.000000,61.999996 
	C181.645065,62.000000 176.290146,62.000000 170.323334,61.699059 
	C165.877548,58.008804 162.043640,54.619492 158.022888,51.065010 
	C160.276459,48.669655 161.475586,47.325420 162.747421,46.053921 
	C176.378494,32.426502 190.032242,18.821754 203.641754,5.172875 
	C204.895325,3.915676 205.886810,2.397170 207.000000,0.999999 
	C219.687561,1.000000 232.375122,1.000000 245.867432,1.236653 
	C245.464264,3.004891 244.396301,4.676232 243.027328,6.046964 
	C224.375885,24.722286 205.682816,43.356014 187.000000,61.999996 
z"/>
<path fill="#7D5BA6" opacity="1.000000" stroke="#FFFFFF" 
	d="
M642.000000,0.999997 
	C654.687561,1.000000 667.375122,1.000000 680.571899,1.338752 
	C697.317810,17.563692 713.554626,33.449883 729.874512,49.417389 
	C725.255554,54.311783 721.627747,58.155888 718.000000,62.000000 
	C712.645081,62.000000 707.290100,62.000000 701.272644,61.731499 
	C681.865662,42.807236 663.102478,24.170233 644.422546,5.450075 
	C643.277954,4.303042 642.792297,2.498568 642.000000,0.999997 
z"/>
<path fill="#7D5BA6" opacity="1.000000" stroke="#FFFFFF" 
	d="
M834.000000,1.000005 
	C846.687561,1.000000 859.375122,1.000000 872.571838,1.338758 
	C889.317505,17.563301 905.553955,33.449085 921.874451,49.417084 
	C917.255432,54.311695 913.627686,58.155842 910.000000,61.999996 
	C904.645081,62.000000 899.290100,62.000000 893.272644,61.731506 
	C873.865662,42.807255 855.102417,24.170242 836.422546,5.450088 
	C835.278015,4.303032 834.792236,2.498584 834.000000,1.000005 
z"/>
<path fill="#7D5BA6" opacity="1.000000" stroke="#FFFFFF" 
	d="
M763.000000,62.000008 
	C757.645081,62.000000 752.290100,62.000000 746.323303,61.699059 
	C741.877686,58.008636 738.043945,54.619152 734.023254,51.064438 
	C736.276367,48.669628 737.475586,47.325386 738.747437,46.053905 
	C752.378479,32.426472 766.032227,18.821716 779.641724,5.172846 
	C780.895325,3.915663 781.886841,2.397178 783.000000,1.000008 
	C795.687561,1.000000 808.375122,1.000000 821.867432,1.236639 
	C821.464294,3.004863 820.396362,4.676229 819.027405,6.046926 
	C800.375977,24.722298 781.682861,43.356026 763.000000,62.000008 
z"/>
<path fill="#7D5BA6" opacity="1.000000" stroke="#FFFFFF" 
	d="
M15.000000,1.000000 
	C28.020895,1.000000 41.041790,1.000000 54.556297,1.346229 
	C37.702118,19.005779 20.359749,36.324558 2.972460,53.598125 
	C2.574582,53.993401 1.668845,53.877476 1.000000,54.000000 
	C1.000000,41.312439 1.000000,28.624876 1.344893,15.472503 
	C6.126524,10.338460 10.563262,5.669230 15.000000,1.000000 
z"/>
<path fill="#756C5C" opacity="1.000000" stroke="#FFFFFF" 
	d="
M1756.437500,61.999996 
	C1774.691772,43.355236 1793.394043,24.720926 1812.053589,6.044062 
	C1813.420776,4.675589 1814.479248,2.998738 1815.340576,1.232630 
	C1818.692871,1.000000 1822.385864,1.000000 1826.539307,0.999998 
	C1827.932617,2.499566 1828.620483,4.242976 1829.834717,5.462093 
	C1848.436401,24.139595 1867.106567,42.748798 1885.880371,61.686928 
	C1883.958374,62.000000 1881.916626,62.000000 1879.642334,61.685928 
	C1868.518677,50.942181 1857.627686,40.512501 1847.100586,30.431137 
	C1840.241577,37.349091 1832.686035,44.969543 1824.969727,52.752251 
	C1827.426880,55.581940 1830.213379,58.790997 1833.000000,62.000023 
	C1827.977905,62.000000 1822.955811,62.000000 1817.598877,61.655365 
	C1817.542114,58.212154 1817.819946,55.113575 1817.902100,51.740723 
	C1810.293823,43.926708 1802.881226,36.386967 1795.233643,28.608053 
	C1784.151855,39.713497 1773.719604,50.159508 1763.318604,60.636677 
	C1763.038696,60.918644 1763.098633,61.538013 1763.000000,62.000008 
	C1760.958374,62.000000 1758.916626,62.000000 1756.437500,61.999996 
M1812.057739,11.557932 
	C1807.236450,16.100660 1802.415039,20.643391 1798.096436,24.712425 
	C1806.539307,33.088215 1814.244995,40.732643 1820.996460,47.430382 
	C1828.256714,40.325657 1835.927856,32.818760 1842.897339,25.998537 
	C1835.660889,18.744825 1828.086670,11.152487 1820.131592,3.178477 
	C1817.841187,5.561043 1815.199341,8.309322 1812.057739,11.557932 
z"/>
<path fill="#756C5C" opacity="1.000000" stroke="#FFFFFF" 
	d="
M763.437500,62.000008 
	C781.682861,43.356026 800.375977,24.722298 819.027405,6.046926 
	C820.396362,4.676229 821.464294,3.004863 822.336060,1.236639 
	C825.692932,1.000000 829.385803,1.000000 833.539368,1.000005 
	C834.792236,2.498584 835.278015,4.303032 836.422546,5.450088 
	C855.102417,24.170242 873.865662,42.807255 892.805054,61.731506 
	C890.958313,62.000000 888.916687,62.000000 886.562744,61.661884 
	C875.019348,50.566555 863.788208,39.809338 852.415527,28.916584 
	C845.789124,35.848557 838.697998,43.266685 831.453186,50.845551 
	C834.736267,54.317764 838.368164,58.158875 842.000000,61.999992 
	C840.285645,62.000000 838.571289,62.000000 836.465820,61.658573 
	C834.350037,59.476791 832.625427,57.636440 830.000000,54.834816 
	C830.000000,58.173203 830.000000,60.086601 830.000000,62.000000 
	C828.933289,62.000000 827.866638,62.000000 826.405579,61.579765 
	C825.966492,59.208557 825.921753,57.257580 825.858643,54.933075 
	C825.563354,53.352623 825.286560,52.145706 824.950073,50.603889 
	C817.433960,43.022259 809.977417,35.775528 802.254395,28.269800 
	C791.667969,38.894905 781.019104,49.569481 770.412170,60.285538 
	C770.058411,60.642906 770.127869,61.419075 770.000000,62.000000 
	C767.958313,62.000000 765.916687,62.000000 763.437500,62.000008 
M806.542786,25.948854 
	C813.695923,33.041740 820.848999,40.134624 827.303284,46.534573 
	C834.985657,38.926270 842.270996,31.711157 849.081543,24.966314 
	C842.118713,17.979334 834.885742,10.721189 826.977295,2.785286 
	C824.011353,5.953583 820.713989,9.431247 817.467346,12.955598 
	C813.685181,17.061178 809.947510,21.207693 806.542786,25.948854 
z"/>
<path fill="#756C5C" opacity="1.000000" stroke="#FFFFFF" 
	d="
M1028.539307,1.000004 
	C1029.782471,2.497241 1030.255005,4.303653 1031.393799,5.445608 
	C1050.072021,24.176237 1068.834473,42.822987 1087.788940,61.744316 
	C1085.958374,62.000000 1083.916626,62.000000 1081.478149,61.653046 
	C1070.203003,50.840939 1059.324707,40.375790 1047.158203,28.671316 
	C1040.468750,35.866287 1033.347534,43.525642 1025.899170,51.243256 
	C1022.687134,51.939613 1022.231384,53.572311 1023.623535,55.998009 
	C1024.766113,57.988846 1025.875732,59.998627 1027.000000,62.000000 
	C1021.977905,62.000000 1016.955811,62.000000 1011.526917,61.666077 
	C1013.923279,58.350647 1016.726501,55.369141 1019.099365,52.845341 
	C1011.185852,44.908852 1003.625305,37.326347 995.884705,29.563251 
	C985.971558,39.491699 975.751282,49.709240 965.581482,59.976803 
	C965.148315,60.414127 965.183167,61.315048 965.000000,62.000000 
	C962.958313,62.000000 960.916687,62.000000 958.437500,62.000015 
	C970.874268,48.994152 983.764893,36.004478 996.616150,22.975952 
	C1003.620178,15.875333 1010.557312,8.708802 1017.262329,1.286004 
	C1020.692932,1.000000 1024.385864,1.000000 1028.539307,1.000004 
M1035.910889,36.410862 
	C1039.387085,33.121845 1042.863281,29.832825 1045.907593,26.952478 
	C1037.654663,18.686243 1030.062622,11.081977 1022.815002,3.822644 
	C1015.545654,11.102175 1007.960815,18.697739 1000.649475,26.019348 
	C1007.943237,33.287594 1015.548340,40.866070 1024.016968,49.305069 
	C1027.570435,45.439747 1031.490723,41.175320 1035.910889,36.410862 
z"/>
<path fill="#7D5BA6" opacity="1.000000" stroke="#FFFFFF" 
	d="
M1874.000000,1.000008 
	C1888.687622,1.000000 1903.375122,1.000000 1918.529419,1.468654 
	C1918.996094,16.628813 1918.996094,31.320316 1918.996094,46.782398 
	C1917.628418,45.812469 1917.054321,45.515606 1916.618408,45.080391 
	C1902.847412,31.337038 1889.078857,17.590990 1875.361938,3.793716 
	C1874.670654,3.098362 1874.443359,1.941814 1874.000000,1.000008 
z"/>
<path fill="#7D5BA6" opacity="1.000000" stroke="#FFFFFF" 
	d="
M1524.000000,1.000000 
	C1538.687622,1.000000 1553.375122,1.000000 1568.593506,1.346356 
	C1554.160400,16.252254 1539.196655,30.811798 1524.000000,45.598003 
	C1524.000000,30.807091 1524.000000,15.903545 1524.000000,1.000000 
z"/>
<path fill="#7D5BA6" opacity="1.000000" stroke="#FFFFFF" 
	d="
M1475.000000,1.000003 
	C1489.687622,1.000000 1504.375122,1.000000 1519.465088,1.464622 
	C1519.867554,16.566462 1519.867554,31.203680 1519.867554,47.275616 
	C1504.103271,31.559748 1489.607300,17.117462 1475.152832,2.633514 
	C1474.855103,2.335230 1475.040161,1.555260 1475.000000,1.000003 
z"/>
<path fill="#7D5BA6" opacity="1.000000" stroke="#FFFFFF" 
	d="
M925.000000,1.000000 
	C939.687561,1.000000 954.375122,1.000000 969.686768,1.331003 
	C962.180847,9.962389 954.116089,18.327944 945.900940,26.543169 
	C938.985779,33.458363 931.895630,40.198669 924.842285,46.548210 
	C924.867798,31.053343 924.933899,16.026670 925.000000,1.000000 
z"/>
<path fill="#7D5BA6" opacity="1.000000" stroke="#FFFFFF" 
	d="
M1324.000000,1.000000 
	C1338.687622,1.000000 1353.375122,1.000000 1368.771973,1.298429 
	C1368.997681,2.261751 1368.593262,3.005735 1368.019165,3.579912 
	C1354.283203,17.315369 1340.532593,31.036263 1326.764404,44.739277 
	C1326.247314,45.253853 1325.526489,45.563713 1324.000000,46.552132 
	C1324.000000,30.767628 1324.000000,15.883814 1324.000000,1.000000 
z"/>
<path fill="#7D5BA6" opacity="1.000000" stroke="#FFFFFF" 
	d="
M1275.000000,0.999997 
	C1289.687622,1.000000 1304.375122,1.000000 1319.538208,1.468614 
	C1320.013672,16.571140 1320.013672,31.205051 1320.013672,46.990360 
	C1304.401367,31.431990 1289.824707,16.911758 1275.277710,2.361849 
	C1275.004395,2.088598 1275.084717,1.461822 1275.000000,0.999997 
z"/>
<path fill="#756C5C" opacity="1.000000" stroke="#FFFFFF" 
	d="
M1357.437500,62.000000 
	C1369.959473,48.959274 1382.947144,35.946342 1395.867310,22.866688 
	C1402.834351,15.813559 1409.685791,8.646152 1416.294678,1.265155 
	C1419.692871,1.000000 1423.385864,1.000000 1427.539429,0.999979 
	C1428.876953,2.502352 1429.482788,4.275020 1430.671143,5.466688 
	C1449.307373,24.154390 1468.019043,42.767128 1486.856689,61.698547 
	C1484.958374,62.000000 1482.916626,62.000000 1480.550659,61.659454 
	C1469.365234,50.916180 1458.504150,40.513458 1446.970703,29.466719 
	C1440.017578,36.594028 1432.502686,44.297180 1424.706055,52.056137 
	C1423.985107,53.325592 1422.960449,54.691216 1423.227905,55.721478 
	C1423.795044,57.906933 1425.035522,59.917645 1426.000000,62.000008 
	C1423.299927,62.000000 1420.599976,62.000000 1417.613647,61.687828 
	C1417.887695,58.251045 1418.448120,55.126431 1418.789551,51.752480 
	C1411.254028,43.835793 1403.937500,36.168442 1396.316895,28.182339 
	C1385.020020,39.546253 1374.725952,49.887943 1364.473022,60.270351 
	C1364.106934,60.641056 1364.148438,61.414337 1364.000000,62.000000 
	C1361.958374,62.000000 1359.916626,62.000000 1357.437500,62.000000 
M1443.486328,27.995415 
	C1443.592285,26.762665 1444.280518,24.968128 1443.715576,24.382532 
	C1436.696899,17.107187 1429.496094,10.007548 1423.095337,3.614904 
	C1415.109863,11.620088 1407.453735,19.295162 1400.659912,26.105770 
	C1407.668457,33.164223 1415.227295,40.777031 1422.981079,48.585983 
	C1429.378174,42.163445 1436.183472,35.331181 1443.486328,27.995415 
z"/>
<path fill="#746B5B" opacity="1.000000" stroke="#FFFFFF" 
	d="
M1158.437500,62.000000 
	C1159.111572,60.603413 1160.098877,59.082527 1161.353394,57.828995 
	C1178.742065,40.454144 1196.172485,23.121124 1213.573120,5.758312 
	C1214.856201,4.477934 1215.989624,3.047444 1217.096313,1.343363 
	C1220.361328,1.000000 1223.722534,1.000000 1227.541992,1.000004 
	C1229.030640,2.532482 1229.845215,4.279764 1231.124268,5.565151 
	C1249.660156,24.194244 1268.258301,42.761353 1286.920776,61.671661 
	C1284.958374,62.000000 1282.916626,62.000000 1280.686768,61.705944 
	C1269.570190,51.012295 1258.642090,40.612701 1246.286499,28.854635 
	C1240.061279,35.659534 1233.013306,43.363892 1225.655640,51.123840 
	C1222.181641,51.842495 1221.604492,53.333229 1223.410889,56.121216 
	C1224.560425,57.895199 1225.156006,60.028049 1226.000000,62.000000 
	C1223.629395,62.000000 1221.258911,62.000000 1218.578857,61.662415 
	C1218.537720,58.539497 1218.806152,55.754158 1219.049561,52.620674 
	C1211.140381,44.976727 1203.256104,37.680927 1195.036987,30.075405 
	C1185.630127,39.499390 1175.397949,49.730820 1165.223999,60.019703 
	C1164.857056,60.390816 1165.061768,61.327126 1165.000000,62.000000 
	C1162.958374,62.000000 1160.916626,62.000000 1158.437500,62.000000 
M1227.206177,7.283467 
	C1226.029541,5.461101 1224.853027,3.638734 1223.927979,2.206150 
	C1215.103394,11.080801 1207.542603,18.684343 1199.983398,26.286425 
	C1207.302002,33.472179 1214.955566,40.986668 1222.041504,47.943989 
	C1229.514648,40.707943 1237.303223,33.166485 1245.437500,25.290277 
	C1239.517456,19.445269 1233.613037,13.615617 1227.206177,7.283467 
z"/>
<path fill="#756C5C" opacity="1.000000" stroke="#FFFFFF" 
	d="
M187.437500,61.999996 
	C205.682816,43.356014 224.375885,24.722286 243.027328,6.046964 
	C244.396301,4.676232 245.464264,3.004891 246.336090,1.236653 
	C249.692917,1.000000 253.385818,1.000000 257.539368,1.000002 
	C258.792267,2.498569 259.278015,4.302997 260.422577,5.450048 
	C279.102478,24.170191 297.865692,42.807217 316.805054,61.731487 
	C314.958344,62.000000 312.916656,62.000000 310.569275,61.663269 
	C299.046387,50.565933 287.829254,39.805328 275.846436,28.310225 
	C269.190887,35.193684 262.042023,42.587379 254.655426,49.960823 
	C249.324509,51.456680 253.842178,53.494045 254.093170,55.717743 
	C254.039597,58.089096 254.019791,60.044548 254.000000,62.000000 
	C252.933334,62.000000 251.866653,62.000000 250.405655,61.579811 
	C249.966721,59.208908 249.922104,57.258190 249.859375,54.933823 
	C249.564087,53.353027 249.286942,52.145885 248.950104,50.603893 
	C241.433929,43.022297 233.977417,35.775547 226.254669,28.270060 
	C215.668152,38.895130 205.019272,49.569687 194.412186,60.285618 
	C194.058487,60.642967 194.127853,61.419086 194.000000,62.000000 
	C191.958328,62.000000 189.916672,62.000000 187.437500,61.999996 
M230.171097,24.633867 
	C237.240143,32.226082 244.309174,39.818295 250.805298,46.795189 
	C258.732330,38.929688 266.095978,31.623198 272.916595,24.855507 
	C266.043610,17.969057 258.803772,10.715040 251.483444,3.380367 
	C244.705032,10.050395 237.608521,17.033428 230.171097,24.633867 
z"/>
<path fill="#756C5C" opacity="1.000000" stroke="#FFFFFF" 
	d="
M449.539368,0.999997 
	C450.792297,2.498558 451.277985,4.303033 452.422546,5.450062 
	C471.102478,24.170195 489.865692,42.807205 508.805054,61.731483 
	C506.958344,62.000000 504.916656,62.000000 502.562744,61.661896 
	C491.072296,50.619282 479.894073,39.914780 468.362244,28.871614 
	C461.852905,35.157188 454.572937,42.186886 447.002441,49.291916 
	C442.313477,50.930759 444.970276,53.190193 446.092712,55.717529 
	C446.039307,58.088963 446.019653,60.044483 446.000000,62.000000 
	C444.933319,62.000000 443.866669,62.000000 442.405701,61.579803 
	C441.966858,59.208828 441.922302,57.258057 441.859680,54.933830 
	C441.564697,53.353973 441.287811,52.147575 440.952393,50.605835 
	C433.438171,43.022381 425.982483,35.774265 418.256897,28.263746 
	C407.667450,38.893124 397.018982,49.568665 386.412231,60.285526 
	C386.058502,60.642929 386.127838,61.419052 386.000000,62.000000 
	C383.958344,62.000000 381.916656,62.000000 379.437500,62.000008 
	C397.682861,43.356033 416.375946,24.722290 435.027405,6.046952 
	C436.396362,4.676237 437.464325,3.004884 438.336121,1.236651 
	C441.692902,1.000000 445.385834,1.000000 449.539368,0.999997 
M437.457306,8.954575 
	C432.133545,14.136403 426.809814,19.318232 421.835907,24.159521 
	C429.798737,32.066864 437.071808,39.289261 443.591492,45.763508 
	C450.691589,38.834335 458.115295,31.589369 464.966644,24.902969 
	C458.005188,17.960793 450.748077,10.723771 442.561310,2.559637 
	C441.227600,4.267237 439.592957,6.360167 437.457306,8.954575 
z"/>
<path fill="#756C5C" opacity="1.000000" stroke="#FFFFFF" 
	d="
M641.539368,0.999997 
	C642.792297,2.498568 643.277954,4.303042 644.422546,5.450075 
	C663.102478,24.170233 681.865662,42.807236 700.805054,61.731499 
	C698.958313,62.000000 696.916687,62.000000 694.562744,61.661880 
	C683.072327,50.619213 671.894165,39.914669 660.362427,28.871471 
	C653.852966,35.157177 646.572998,42.186886 639.002502,49.291908 
	C634.313171,50.930988 636.970276,53.190380 638.093140,55.717747 
	C638.039612,58.089100 638.019836,60.044552 638.000000,62.000000 
	C636.933289,62.000000 635.866638,62.000000 634.405640,61.579826 
	C633.966797,59.208981 633.922241,57.258312 633.859558,54.933983 
	C633.564148,53.353142 633.286926,52.145962 632.950073,50.603943 
	C625.433960,43.022301 617.977478,35.775501 610.254761,28.269981 
	C599.668152,38.895100 589.019226,49.569584 578.412170,60.285580 
	C578.058472,60.642902 578.127869,61.419079 578.000000,62.000004 
	C575.958313,62.000000 573.916687,62.000000 571.437500,62.000008 
	C589.682861,43.356022 608.375977,24.722296 627.027405,6.046945 
	C628.396362,4.676226 629.464294,3.004856 630.336060,1.236636 
	C633.692932,1.000000 637.385803,1.000000 641.539368,0.999997 
M621.455200,16.956463 
	C618.791565,19.411085 616.127991,21.865707 614.109619,23.725700 
	C622.094299,31.770914 629.398743,39.130733 636.071777,45.854366 
	C643.005432,38.992680 650.294861,31.778975 657.215027,24.930666 
	C650.194824,17.941154 642.933350,10.711494 634.813293,2.626950 
	C630.744446,7.003185 626.350037,11.729583 621.455200,16.956463 
z"/>
<path fill="#756C5C" opacity="1.000000" stroke="#FFFFFF" 
	d="
M1.000000,54.437500 
	C1.668845,53.877476 2.574582,53.993401 2.972460,53.598125 
	C20.359749,36.324558 37.702118,19.005779 55.024956,1.346229 
	C58.030594,1.000000 61.061188,1.000000 64.545891,0.999999 
	C70.974670,7.346897 76.811066,13.831156 82.952087,20.012781 
	C96.757515,33.909485 110.714050,47.656067 124.804535,61.731880 
	C122.958336,62.000000 120.916664,62.000000 118.571167,61.663700 
	C107.076591,50.581085 95.885841,39.834774 84.407051,28.811863 
	C77.764816,35.230423 70.526833,42.224674 62.996536,49.326595 
	C59.331429,51.076263 61.103958,53.224941 62.092445,55.715794 
	C62.038845,58.087875 62.019424,60.043938 62.000000,62.000000 
	C60.933331,62.000000 59.866661,62.000000 58.406212,61.616730 
	C58.012432,59.556511 58.012432,57.879559 58.012432,56.202610 
	C57.590252,56.053551 57.168072,55.904491 56.745892,55.755432 
	C55.163925,57.836952 53.581963,59.918476 52.000000,62.000000 
	C50.285641,62.000000 48.571285,62.000000 46.567291,61.696220 
	C50.086517,57.992523 53.895386,54.592602 57.110111,51.723034 
	C48.898506,43.353451 41.635620,35.950844 33.793812,27.958170 
	C32.517406,29.504566 31.274582,31.304146 29.745901,32.814369 
	C20.199467,42.245548 10.589153,51.612064 1.000000,61.000000 
	C1.000000,58.958332 1.000000,56.916668 1.000000,54.437500 
M74.012337,33.512211 
	C77.120338,31.059017 80.228333,28.605827 82.716888,26.641567 
	C74.034515,17.958351 66.786568,10.709701 59.827724,3.750183 
	C52.908958,10.698205 45.678135,17.959600 38.870541,24.795980 
	C45.973354,31.809954 53.354767,39.099037 61.168552,46.815086 
	C64.982468,42.860229 69.248192,38.436863 74.012337,33.512211 
z"/>
<path fill="#7D5BA6" opacity="1.000000" stroke="#FFFFFF" 
	d="
M1125.000000,1.000000 
	C1139.354248,1.000000 1153.708496,1.000000 1168.833984,1.263175 
	C1168.850098,2.583563 1168.226074,3.771516 1167.320435,4.678454 
	C1154.306152,17.711725 1141.259888,30.713121 1128.194824,43.695580 
	C1127.460327,44.425476 1126.495728,44.923885 1125.000000,45.981087 
	C1125.000000,30.446487 1125.000000,15.723244 1125.000000,1.000000 
z"/>
<path fill="#7D5BA6" opacity="1.000000" stroke="#FFFFFF" 
	d="
M1675.000000,1.000010 
	C1689.354248,1.000000 1703.708496,1.000000 1718.563721,1.467702 
	C1719.064575,16.437840 1719.064575,30.940273 1719.064575,46.090343 
	C1717.638184,45.199184 1717.151489,45.005550 1716.809937,44.665916 
	C1703.234741,31.163193 1689.657227,17.662693 1676.152100,4.090117 
	C1675.445923,3.380546 1675.369507,2.044414 1675.000000,1.000010 
z"/>
<path fill="#7D5BA6" opacity="1.000000" stroke="#FFFFFF" 
	d="
M1724.000000,1.000000 
	C1738.354248,1.000000 1752.708496,1.000000 1767.789795,1.289271 
	C1767.820068,2.495471 1767.218384,3.507518 1766.412109,4.315036 
	C1753.236816,17.509674 1740.039673,30.682295 1726.829102,43.841511 
	C1726.185547,44.482586 1725.375488,44.956539 1724.000000,45.992577 
	C1724.000000,30.454224 1724.000000,15.727112 1724.000000,1.000000 
z"/>
<path fill="#7D5BA6" opacity="1.000000" stroke="#FFFFFF" 
	d="
M1076.000000,1.000001 
	C1090.354248,1.000000 1104.708496,1.000000 1119.634277,1.458998 
	C1120.205933,16.393047 1120.205933,30.868099 1120.205933,45.963043 
	C1118.804810,45.124809 1118.317627,44.948936 1117.984985,44.617687 
	C1104.323608,31.011045 1090.664307,17.402086 1077.063965,3.734514 
	C1076.431763,3.099178 1076.342285,1.923857 1076.000000,1.000001 
z"/>
<path fill="#7D5BA6" opacity="1.000000" stroke="#FFFFFF" 
	d="
M63.288849,49.218925 
	C70.526833,42.224674 77.764816,35.230423 84.407051,28.811863 
	C95.885841,39.834774 107.076591,50.581085 118.133667,61.663700 
	C103.645775,62.000000 89.291542,62.000000 74.330414,61.695930 
	C72.438324,60.090328 71.059120,58.867603 69.888039,57.470425 
	C67.626244,54.771942 65.481888,51.975033 63.288849,49.218925 
z"/>
<path fill="#7D5BA6" opacity="1.000000" stroke="#FFFFFF" 
	d="
M1.000000,61.500000 
	C10.589153,51.612064 20.199467,42.245548 29.745901,32.814369 
	C31.274582,31.304146 32.517406,29.504566 33.793812,27.958170 
	C41.635620,35.950844 48.898506,43.353451 57.110111,51.723034 
	C53.895386,54.592602 50.086517,57.992523 46.138824,61.696220 
	C31.000000,62.000000 16.000000,62.000000 1.000000,61.500000 
z"/>
<path fill="#7D5BA6" opacity="1.000000" stroke="#FFFFFF" 
	d="
M842.468628,61.999992 
	C838.368164,58.158875 834.736267,54.317764 831.453186,50.845551 
	C838.697998,43.266685 845.789124,35.848557 852.415527,28.916584 
	C863.788208,39.809338 875.019348,50.566555 886.125244,61.661884 
	C871.645752,62.000000 857.291565,62.000000 842.468628,61.999992 
z"/>
<path fill="#7D5BA6" opacity="1.000000" stroke="#FFFFFF" 
	d="
M639.293030,49.216599 
	C646.572998,42.186886 653.852966,35.157177 660.362427,28.871471 
	C671.894165,39.914669 683.072327,50.619213 694.125244,61.661880 
	C679.645752,62.000000 665.291565,62.000000 650.330444,61.695946 
	C648.438110,60.090137 647.058289,58.867527 645.887512,57.469784 
	C643.626953,54.770969 641.484436,51.973286 639.293030,49.216599 
z"/>
<path fill="#7D5BA6" opacity="1.000000" stroke="#FFFFFF" 
	d="
M447.292969,49.216583 
	C454.572937,42.186886 461.852905,35.157188 468.362244,28.871614 
	C479.894073,39.914780 491.072296,50.619282 502.125244,61.661896 
	C487.645782,62.000000 473.291534,62.000000 458.330414,61.695934 
	C456.438141,60.090126 455.058289,58.867493 453.887512,57.469753 
	C451.626953,54.770931 449.484436,51.973270 447.292969,49.216583 
z"/>
<path fill="#7D5BA6" opacity="1.000000" stroke="#FFFFFF" 
	d="
M386.468628,62.000000 
	C386.127838,61.419052 386.058502,60.642929 386.412231,60.285526 
	C397.018982,49.568665 407.667450,38.893124 418.256897,28.263746 
	C425.982483,35.774265 433.438171,43.022381 440.658905,50.774956 
	C436.949310,54.852943 433.474640,58.426472 430.000000,62.000000 
	C415.645782,62.000000 401.291534,62.000000 386.468628,62.000000 
z"/>
<path fill="#7D5BA6" opacity="1.000000" stroke="#FFFFFF" 
	d="
M254.893127,49.981079 
	C262.042023,42.587379 269.190887,35.193684 275.846436,28.310225 
	C287.829254,39.805328 299.046387,50.565933 310.131775,61.663269 
	C295.645782,62.000000 281.291534,62.000000 266.330444,61.695938 
	C262.113403,57.588276 258.503265,53.784676 254.893127,49.981079 
z"/>
<path fill="#7D5BA6" opacity="1.000000" stroke="#FFFFFF" 
	d="
M194.468658,62.000000 
	C194.127853,61.419086 194.058487,60.642967 194.412186,60.285618 
	C205.019272,49.569687 215.668152,38.895130 226.254669,28.270060 
	C233.977417,35.775547 241.433929,43.022297 248.657043,50.773922 
	C244.949097,54.852531 241.474548,58.426266 238.000000,62.000000 
	C223.645767,62.000000 209.291550,62.000000 194.468658,62.000000 
z"/>
<path fill="#7D5BA6" opacity="1.000000" stroke="#FFFFFF" 
	d="
M770.468628,62.000000 
	C770.127869,61.419075 770.058411,60.642906 770.412170,60.285538 
	C781.019104,49.569481 791.667969,38.894905 802.254395,28.269800 
	C809.977417,35.775528 817.433960,43.022259 824.657043,50.773888 
	C820.949036,54.852516 817.474487,58.426243 814.000000,61.999985 
	C799.645752,62.000000 785.291565,62.000000 770.468628,62.000000 
z"/>
<path fill="#7D5BA6" opacity="1.000000" stroke="#FFFFFF" 
	d="
M578.468628,62.000004 
	C578.127869,61.419079 578.058472,60.642902 578.412170,60.285580 
	C589.019226,49.569584 599.668152,38.895100 610.254761,28.269981 
	C617.977478,35.775501 625.433960,43.022301 632.657043,50.773964 
	C628.949097,54.852551 625.474548,58.426277 622.000000,62.000004 
	C607.645752,62.000000 593.291565,62.000000 578.468628,62.000004 
z"/>
<path fill="#7D5BA6" opacity="1.000000" stroke="#FFFFFF" 
	d="
M1026.226196,51.184952 
	C1033.347534,43.525642 1040.468750,35.866287 1047.158203,28.671316 
	C1059.324707,40.375790 1070.203003,50.840939 1081.040649,61.653046 
	C1065.979126,62.000000 1050.958130,62.000000 1035.320557,61.701111 
	C1031.878052,57.996452 1029.052124,54.590683 1026.226196,51.184952 
z"/>
<path fill="#7D5BA6" opacity="1.000000" stroke="#FFFFFF" 
	d="
M1763.468628,62.000008 
	C1763.098633,61.538013 1763.038696,60.918644 1763.318604,60.636677 
	C1773.719604,50.159508 1784.151855,39.713497 1795.233643,28.608053 
	C1802.881226,36.386967 1810.293823,43.926708 1817.753174,52.043056 
	C1814.866699,55.746452 1811.933350,58.873245 1809.000000,62.000023 
	C1793.979126,62.000000 1778.958130,62.000000 1763.468628,62.000008 
z"/>
<path fill="#746B5B" opacity="1.000000" stroke="#FFFFFF" 
	d="
M1626.541992,0.999981 
	C1628.088745,2.539310 1628.984375,4.270677 1630.295288,5.589070 
	C1648.803345,24.200298 1667.367676,42.755440 1685.959229,61.662048 
	C1683.958374,62.000000 1681.916626,62.000000 1679.733154,61.734924 
	C1669.134521,50.654957 1658.677734,39.840073 1646.740601,27.493979 
	C1639.185547,35.752254 1632.151611,43.440891 1624.795410,51.170296 
	C1622.464600,51.473171 1620.456055,51.735283 1618.229370,51.721901 
	C1610.580811,43.963345 1603.150513,36.480282 1595.534302,28.809933 
	C1584.937500,39.426960 1574.845337,49.514397 1564.811401,59.659256 
	C1564.287476,60.188889 1564.259033,61.208477 1564.000000,61.999992 
	C1561.958374,62.000000 1559.916626,62.000000 1557.437500,61.999977 
	C1558.158203,60.621788 1559.220459,59.147568 1560.489136,57.879940 
	C1577.891235,40.490738 1595.327515,23.135704 1612.734009,5.750765 
	C1614.015869,4.470472 1615.133545,3.025691 1616.163818,1.328699 
	C1619.361328,1.000000 1622.722534,1.000000 1626.541992,0.999981 
M1600.246460,28.092920 
	C1607.257935,35.128487 1614.269409,42.164055 1620.525513,48.441612 
	C1628.650391,40.509850 1636.407349,32.937263 1643.210571,26.295774 
	C1635.827759,18.893707 1628.275391,11.321540 1620.487793,3.513571 
	C1614.102051,9.927470 1607.146118,16.819004 1600.358521,23.872616 
	C1599.647095,24.612085 1599.929077,26.307541 1600.246460,28.092920 
z"/>
<path fill="#7D5BA6" opacity="1.000000" stroke="#FFFFFF" 
	d="
M1424.987793,52.000271 
	C1432.502686,44.297180 1440.017578,36.594028 1446.970703,29.466719 
	C1458.504150,40.513458 1469.365234,50.916180 1480.113159,61.659454 
	C1464.979126,62.000000 1449.958130,62.000000 1434.357788,61.683388 
	C1430.848145,58.244583 1427.917969,55.122398 1424.987793,52.000271 
z"/>
<path fill="#7D5BA6" opacity="1.000000" stroke="#FFFFFF" 
	d="
M1364.468628,62.000000 
	C1364.148438,61.414337 1364.106934,60.641056 1364.473022,60.270351 
	C1374.725952,49.887943 1385.020020,39.546253 1396.316895,28.182339 
	C1403.937500,36.168442 1411.254028,43.835793 1418.640869,52.051052 
	C1415.807495,55.732670 1412.903809,58.866375 1410.000000,62.000042 
	C1394.979126,62.000000 1379.958130,62.000000 1364.468628,62.000000 
z"/>
<path fill="#7D5BA6" opacity="1.000000" stroke="#FFFFFF" 
	d="
M1833.468628,62.000023 
	C1830.213379,58.790997 1827.426880,55.581940 1824.969727,52.752251 
	C1832.686035,44.969543 1840.241577,37.349091 1847.100586,30.431137 
	C1857.627686,40.512501 1868.518677,50.942181 1879.204834,61.685928 
	C1863.979126,62.000000 1848.958130,62.000000 1833.468628,62.000023 
z"/>
<path fill="#7D5BA6" opacity="1.000000" stroke="#FFFFFF" 
	d="
M965.468628,62.000000 
	C965.183167,61.315048 965.148315,60.414127 965.581482,59.976803 
	C975.751282,49.709240 985.971558,39.491699 995.884705,29.563251 
	C1003.625305,37.326347 1011.185852,44.908852 1019.099365,52.845341 
	C1016.726501,55.369141 1013.923279,58.350647 1011.060059,61.666077 
	C995.979126,62.000000 980.958191,62.000000 965.468628,62.000000 
z"/>
<path fill="#7D5BA6" opacity="1.000000" stroke="#FFFFFF" 
	d="
M303.000000,1.000005 
	C317.020905,1.000000 331.041779,1.000000 345.526733,1.468638 
	C345.990784,15.988654 345.990784,30.040033 345.990784,44.948517 
	C344.560669,43.891304 343.874207,43.505657 343.338074,42.969654 
	C330.285553,29.920380 317.237305,16.866705 304.243317,3.759260 
	C303.578033,3.088178 303.403168,1.930913 303.000000,1.000005 
z"/>
<path fill="#7D5BA6" opacity="1.000000" stroke="#FFFFFF" 
	d="
M1564.468628,61.999992 
	C1564.259033,61.208477 1564.287476,60.188889 1564.811401,59.659256 
	C1574.845337,49.514397 1584.937500,39.426960 1595.534302,28.809933 
	C1603.150513,36.480282 1610.580811,43.963345 1618.068359,52.036652 
	C1615.416992,55.751263 1612.708496,58.875626 1610.000000,61.999996 
	C1594.979126,62.000000 1579.958130,62.000000 1564.468628,61.999992 
z"/>
<path fill="#7D5BA6" opacity="1.000000" stroke="#FFFFFF" 
	d="
M1225.965332,51.068260 
	C1233.013306,43.363892 1240.061279,35.659534 1246.286499,28.854635 
	C1258.642090,40.612701 1269.570190,51.012295 1280.249268,61.705944 
	C1264.979126,62.000000 1249.958130,62.000000 1234.444336,61.658348 
	C1231.289307,57.900551 1228.627319,54.484409 1225.965332,51.068260 
z"/>
<path fill="#7D5BA6" opacity="1.000000" stroke="#FFFFFF" 
	d="
M350.000000,1.000000 
	C364.020905,1.000000 378.041779,1.000000 392.742065,1.311788 
	C379.352020,15.782330 365.283997,29.942478 351.190979,44.077679 
	C351.065582,44.203415 350.604462,43.994358 350.000000,43.889614 
	C350.000000,29.619759 350.000000,15.309879 350.000000,1.000000 
z"/>
<path fill="#7D5BA6" opacity="1.000000" stroke="#FFFFFF" 
	d="
M495.000000,1.000005 
	C509.020905,1.000000 523.041809,1.000000 537.526733,1.468638 
	C537.990784,15.988640 537.990784,30.040005 537.990784,44.948547 
	C536.570496,43.898579 535.878601,43.509796 535.338196,42.969509 
	C522.285583,29.920374 509.237305,16.866690 496.243286,3.759279 
	C495.578033,3.088187 495.403168,1.930914 495.000000,1.000005 
z"/>
<path fill="#7D5BA6" opacity="1.000000" stroke="#FFFFFF" 
	d="
M542.000000,1.000000 
	C556.020874,1.000000 570.041809,1.000000 584.742065,1.311776 
	C571.351990,15.782318 557.283997,29.942484 543.190979,44.077682 
	C543.065613,44.203411 542.604431,43.994343 542.000000,43.889587 
	C542.000000,29.619749 542.000000,15.309875 542.000000,1.000000 
z"/>
<path fill="#7D5BA6" opacity="1.000000" stroke="#FFFFFF" 
	d="
M111.000000,1.000001 
	C125.020897,1.000000 139.041794,1.000000 153.526733,1.468638 
	C153.990799,15.988651 153.990799,30.040028 153.990799,44.948559 
	C152.570541,43.898594 151.878601,43.509850 151.338165,42.969555 
	C138.285492,29.920420 125.237328,16.866684 112.243355,3.759235 
	C111.578072,3.088149 111.403198,1.930901 111.000000,1.000001 
z"/>
<path fill="#7D5BA6" opacity="1.000000" stroke="#FFFFFF" 
	d="
M687.000000,0.999999 
	C701.020874,1.000000 715.041809,1.000000 729.526733,1.468637 
	C729.990784,15.988635 729.990784,30.039995 729.990784,44.948605 
	C728.570496,43.898575 727.878601,43.509773 727.338135,42.969490 
	C714.285583,29.920332 701.237305,16.866636 688.243347,3.759210 
	C687.578064,3.088125 687.403198,1.930887 687.000000,0.999999 
z"/>
<path fill="#7D5BA6" opacity="1.000000" stroke="#FFFFFF" 
	d="
M158.000000,1.000000 
	C172.020889,1.000000 186.041794,1.000000 200.742050,1.311781 
	C187.352020,15.782321 173.284012,29.942474 159.190979,44.077671 
	C159.065613,44.203411 158.604462,43.994362 158.000000,43.889629 
	C158.000000,29.619764 158.000000,15.309882 158.000000,1.000000 
z"/>
<path fill="#7D5BA6" opacity="1.000000" stroke="#FFFFFF" 
	d="
M734.000000,1.000000 
	C748.020874,1.000000 762.041809,1.000000 776.742065,1.311771 
	C763.352112,15.782234 749.284180,29.942326 735.191284,44.077480 
	C735.065918,44.203197 734.604736,43.994144 734.000000,43.889362 
	C734.000000,29.619616 734.000000,15.309808 734.000000,1.000000 
z"/>
<path fill="#7D5BA6" opacity="1.000000" stroke="#FFFFFF" 
	d="
M879.000000,1.000003 
	C893.020874,1.000000 907.041809,1.000000 921.630188,1.459489 
	C922.199402,16.291162 922.201111,30.663345 921.852783,44.994846 
	C907.624084,31.111872 893.736511,17.278543 879.899902,3.394307 
	C879.351379,2.843906 879.288940,1.809103 879.000000,1.000003 
z"/>
<path fill="#7D5BA6" opacity="1.000000" stroke="#FFFFFF" 
	d="
M1625.117676,51.129570 
	C1632.151611,43.440891 1639.185547,35.752254 1646.740601,27.493979 
	C1658.677734,39.840073 1669.134521,50.654957 1679.295654,61.734924 
	C1664.312378,62.000000 1649.624878,62.000000 1634.281982,61.725327 
	C1630.790405,58.010303 1627.953979,54.569958 1625.117676,51.129570 
z"/>
<path fill="#7D5BA6" opacity="1.000000" stroke="#FFFFFF" 
	d="
M1165.468628,62.000000 
	C1165.061768,61.327126 1164.857056,60.390816 1165.223999,60.019703 
	C1175.397949,49.730820 1185.630127,39.499390 1195.036987,30.075405 
	C1203.256104,37.680927 1211.140381,44.976727 1218.752686,52.785759 
	C1215.653809,56.199333 1212.826904,59.099678 1210.000000,62.000011 
	C1195.312378,62.000000 1180.624878,62.000000 1165.468628,62.000000 
z"/>
<path fill="#706859" opacity="1.000000" stroke="#FFFFFF" 
	d="
M1075.562500,1.000001 
	C1076.342285,1.923857 1076.431763,3.099178 1077.063965,3.734514 
	C1090.664307,17.402086 1104.323608,31.011045 1117.984985,44.617687 
	C1118.317627,44.948936 1118.804810,45.124809 1120.205933,45.963043 
	C1120.205933,30.868099 1120.205933,16.393047 1120.103027,1.458998 
	C1121.388916,1.000000 1122.777832,1.000000 1124.583374,1.000000 
	C1125.000000,15.723244 1125.000000,30.446487 1125.000000,45.981087 
	C1126.495728,44.923885 1127.460327,44.425476 1128.194824,43.695580 
	C1141.259888,30.713121 1154.306152,17.711725 1167.320435,4.678454 
	C1168.226074,3.771516 1168.850098,2.583563 1169.302490,1.263175 
	C1171.041626,1.000000 1173.083374,1.000000 1175.562500,0.999998 
	C1171.875732,5.309522 1167.825928,9.693245 1163.613403,13.914669 
	C1151.048584,26.505798 1138.419922,39.033154 1124.770996,52.626247 
	C1128.277100,55.765091 1131.452271,58.607643 1134.813721,61.725098 
	C1132.958374,62.000000 1130.916626,62.000000 1128.621338,61.681129 
	C1126.526245,59.300758 1124.684937,57.239262 1122.312256,54.582893 
	C1120.290771,57.405434 1118.645386,59.702721 1117.000000,62.000000 
	C1115.285645,62.000000 1113.571289,62.000000 1111.428467,61.999992 
	C1113.734009,58.776436 1116.468140,55.552887 1119.710815,51.729702 
	C1102.873779,35.002064 1086.070190,18.307589 1069.133301,1.306557 
	C1071.041626,1.000000 1073.083374,1.000000 1075.562500,1.000001 
z"/>
<path fill="#706859" opacity="1.000000" stroke="#FFFFFF" 
	d="
M1723.583374,1.000000 
	C1724.000000,15.727112 1724.000000,30.454224 1724.000000,45.992577 
	C1725.375488,44.956539 1726.185547,44.482586 1726.829102,43.841511 
	C1740.039673,30.682295 1753.236816,17.509674 1766.412109,4.315036 
	C1767.218384,3.507518 1767.820068,2.495471 1768.258423,1.289271 
	C1770.041626,1.000000 1772.083374,1.000000 1774.562500,1.000001 
	C1760.993042,15.126489 1747.011475,29.278416 1732.957275,43.357750 
	C1730.164062,46.156162 1727.092163,48.676285 1723.834839,51.606815 
	C1727.359009,55.363079 1730.152588,58.340530 1732.973022,61.658993 
	C1731.285645,62.000000 1729.571289,62.000000 1727.546387,61.663612 
	C1725.384766,59.284489 1723.533813,57.241756 1721.077026,54.530437 
	C1719.115479,57.416409 1717.557739,59.708233 1716.000000,62.000027 
	C1713.958374,62.000000 1711.916626,62.000000 1709.437378,61.999893 
	C1712.290283,59.194370 1715.580811,56.388962 1719.439087,53.099533 
	C1701.651001,35.237888 1684.923218,18.440931 1668.097656,1.321988 
	C1670.041626,1.000000 1672.083374,1.000000 1674.562500,1.000010 
	C1675.369507,2.044414 1675.445923,3.380546 1676.152100,4.090117 
	C1689.657227,17.662693 1703.234741,31.163193 1716.809937,44.665916 
	C1717.151489,45.005550 1717.638184,45.199184 1719.064575,46.090343 
	C1719.064575,30.940273 1719.064575,16.437840 1719.032227,1.467702 
	C1720.388916,1.000000 1721.777832,1.000000 1723.583374,1.000000 
z"/>
<path fill="#756C5C" opacity="1.000000" stroke="#FFFFFF" 
	d="
M1274.571533,0.999997 
	C1275.084717,1.461822 1275.004395,2.088598 1275.277710,2.361849 
	C1289.824707,16.911758 1304.401367,31.431990 1320.013672,46.990360 
	C1320.013672,31.205051 1320.013672,16.571140 1320.006836,1.468614 
	C1321.066650,1.000000 1322.133423,1.000000 1323.600098,1.000000 
	C1324.000000,15.883814 1324.000000,30.767628 1324.000000,46.552132 
	C1325.526489,45.563713 1326.247314,45.253853 1326.764404,44.739277 
	C1340.532593,31.036263 1354.283203,17.315369 1368.019165,3.579912 
	C1368.593262,3.005735 1368.997681,2.261751 1369.240601,1.298429 
	C1371.041626,1.000000 1373.083374,1.000000 1375.562500,1.000020 
	C1358.944580,17.809629 1341.889038,34.619221 1323.418945,52.822979 
	C1327.458496,56.120468 1330.655029,58.729752 1333.925781,61.669518 
	C1332.285645,62.000000 1330.571289,62.000000 1328.492920,61.647991 
	C1326.267334,59.292725 1324.405884,57.289463 1321.834106,54.521816 
	C1319.912109,57.495003 1318.456055,59.747482 1317.000000,61.999977 
	C1314.958374,62.000000 1312.916626,62.000000 1310.437500,61.999985 
	C1312.951172,58.867443 1315.902466,55.734917 1319.308105,52.120140 
	C1302.542236,35.263733 1285.833740,18.465132 1269.062744,1.333265 
	C1270.714355,1.000000 1272.428711,1.000000 1274.571533,0.999997 
z"/>
<path fill="#756C5C" opacity="1.000000" stroke="#FFFFFF" 
	d="
M1474.562500,1.000003 
	C1475.040161,1.555260 1474.855103,2.335230 1475.152832,2.633514 
	C1489.607300,17.117462 1504.103271,31.559748 1519.867554,47.275616 
	C1519.867554,31.203680 1519.867554,16.566462 1519.933838,1.464622 
	C1521.066650,1.000000 1522.133423,1.000000 1523.600098,1.000000 
	C1524.000000,15.903545 1524.000000,30.807091 1524.000000,45.598003 
	C1539.196655,30.811798 1554.160400,16.252254 1569.062012,1.346356 
	C1570.714355,1.000000 1572.428711,1.000000 1574.571533,0.999986 
	C1573.861328,2.388604 1572.829956,3.884351 1571.567627,5.149404 
	C1557.354980,19.392447 1543.117798,33.610996 1528.849609,47.798401 
	C1527.562622,49.077980 1526.014038,50.094494 1524.138672,51.590675 
	C1527.767700,55.320614 1530.729614,58.364834 1533.845703,61.704529 
	C1531.958374,62.000000 1529.916626,62.000000 1527.713623,61.714939 
	C1525.735352,59.378639 1523.918579,57.327400 1521.550781,54.653961 
	C1519.405884,57.492580 1517.702881,59.746292 1516.000000,62.000000 
	C1514.285645,62.000000 1512.571289,62.000000 1510.428467,61.999985 
	C1512.832153,58.803585 1515.664429,55.607201 1518.876099,51.982555 
	C1502.022583,35.149052 1485.200684,18.347164 1468.189453,1.272639 
	C1470.041626,1.000000 1472.083374,1.000000 1474.562500,1.000003 
z"/>
<path fill="#776E5E" opacity="1.000000" stroke="#FFFFFF" 
	d="
M733.600037,1.000000 
	C734.000000,15.309808 734.000000,29.619616 734.000000,43.889362 
	C734.604736,43.994144 735.065918,44.203197 735.191284,44.077480 
	C749.284180,29.942326 763.352112,15.782234 777.210693,1.311771 
	C778.714355,1.000000 780.428711,1.000000 782.571533,1.000008 
	C781.886841,2.397178 780.895325,3.915663 779.641724,5.172846 
	C766.032227,18.821716 752.378479,32.426472 738.747437,46.053905 
	C737.475586,47.325386 736.276367,48.669628 734.023254,51.064438 
	C738.043945,54.619152 741.877686,58.008636 745.855713,61.699059 
	C744.285645,62.000000 742.571289,62.000000 740.468262,61.653366 
	C737.494995,58.563194 734.910461,55.819660 731.780579,52.497246 
	C728.896729,56.019394 726.448364,59.009686 724.000000,61.999985 
	C722.285645,62.000000 720.571289,62.000000 718.428467,62.000000 
	C721.627747,58.155888 725.255554,54.311783 729.874512,49.417389 
	C713.554626,33.449883 697.317810,17.563692 681.040527,1.338752 
	C682.714355,1.000000 684.428711,1.000000 686.571533,0.999999 
	C687.403198,1.930887 687.578064,3.088125 688.243347,3.759210 
	C701.237305,16.866636 714.285583,29.920332 727.338135,42.969490 
	C727.878601,43.509773 728.570496,43.898575 729.990784,44.948605 
	C729.990784,30.039995 729.990784,15.988635 729.995361,1.468637 
	C731.066711,1.000000 732.133362,1.000000 733.600037,1.000000 
z"/>
<path fill="#776E5E" opacity="1.000000" stroke="#FFFFFF" 
	d="
M157.600006,1.000000 
	C158.000000,15.309882 158.000000,29.619764 158.000000,43.889629 
	C158.604462,43.994362 159.065613,44.203411 159.190979,44.077671 
	C173.284012,29.942474 187.352020,15.782321 201.210709,1.311781 
	C202.714355,1.000000 204.428711,1.000000 206.571533,0.999999 
	C205.886810,2.397170 204.895325,3.915676 203.641754,5.172875 
	C190.032242,18.821754 176.378494,32.426502 162.747421,46.053921 
	C161.475586,47.325420 160.276459,48.669655 158.022888,51.065010 
	C162.043640,54.619492 165.877548,58.008804 169.855728,61.699059 
	C168.285645,62.000000 166.571289,62.000000 164.468170,61.653351 
	C161.495041,58.563236 158.910675,55.819767 155.782944,52.499474 
	C152.898392,56.020603 150.449203,59.010303 148.000000,62.000000 
	C146.285645,62.000000 144.571289,62.000000 142.428467,62.000000 
	C145.628296,58.155773 149.256607,54.311550 153.874710,49.418625 
	C137.553360,33.449337 121.317223,17.563410 105.040543,1.338743 
	C106.714355,1.000000 108.428719,1.000000 110.571533,1.000001 
	C111.403198,1.930901 111.578072,3.088149 112.243355,3.759235 
	C125.237328,16.866684 138.285492,29.920420 151.338165,42.969555 
	C151.878601,43.509850 152.570541,43.898594 153.990799,44.948559 
	C153.990799,30.040028 153.990799,15.988651 153.995392,1.468638 
	C155.066666,1.000000 156.133347,1.000000 157.600006,1.000000 
z"/>
<path fill="#776E5E" opacity="1.000000" stroke="#FFFFFF" 
	d="
M541.600037,1.000000 
	C542.000000,15.309875 542.000000,29.619749 542.000000,43.889587 
	C542.604431,43.994343 543.065613,44.203411 543.190979,44.077682 
	C557.283997,29.942484 571.351990,15.782318 585.210693,1.311776 
	C586.714355,1.000000 588.428711,1.000000 590.571533,0.999997 
	C589.886841,2.397155 588.895325,3.915676 587.641785,5.172860 
	C574.032288,18.821764 560.378479,32.426495 546.747437,46.053917 
	C545.473755,47.327278 544.272888,48.673443 542.022583,51.065380 
	C546.043396,54.619713 549.877441,58.008911 553.855713,61.699051 
	C552.285645,62.000000 550.571289,62.000000 548.468140,61.653358 
	C545.495056,58.563248 542.910706,55.819775 539.782959,52.499428 
	C536.898376,56.020584 534.449219,59.010288 532.000000,61.999992 
	C530.285645,62.000000 528.571289,62.000000 526.428467,62.000000 
	C529.628296,58.155777 533.256653,54.311550 537.874634,49.418774 
	C521.553345,33.449440 505.317200,17.563457 489.040527,1.338739 
	C490.714355,1.000000 492.428711,1.000000 494.571533,1.000005 
	C495.403168,1.930914 495.578033,3.088187 496.243286,3.759279 
	C509.237305,16.866690 522.285583,29.920374 535.338196,42.969509 
	C535.878601,43.509796 536.570496,43.898579 537.990784,44.948547 
	C537.990784,30.040005 537.990784,15.988640 537.995361,1.468638 
	C539.066711,1.000000 540.133362,1.000000 541.600037,1.000000 
z"/>
<path fill="#776E5E" opacity="1.000000" stroke="#FFFFFF" 
	d="
M349.600006,1.000000 
	C350.000000,15.309879 350.000000,29.619759 350.000000,43.889614 
	C350.604462,43.994358 351.065582,44.203415 351.190979,44.077679 
	C365.283997,29.942478 379.352020,15.782330 393.210693,1.311788 
	C394.714355,1.000000 396.428711,1.000000 398.571533,0.999995 
	C397.886810,2.397156 396.895294,3.915656 395.641724,5.172843 
	C382.032227,18.821741 368.378510,32.426498 354.747437,46.053921 
	C353.473755,47.327278 352.272888,48.673454 350.022797,51.065067 
	C354.043579,54.619545 357.877502,58.008839 361.855713,61.699066 
	C360.285645,62.000000 358.571289,62.000000 356.468170,61.653358 
	C353.495056,58.563244 350.910675,55.819775 347.782959,52.499474 
	C344.898407,56.020599 342.449188,59.010300 340.000000,62.000000 
	C338.285645,62.000000 336.571289,62.000000 334.428467,62.000000 
	C337.628448,58.155613 341.256866,54.311234 345.874481,49.418812 
	C329.553223,33.449482 313.317139,17.563496 297.040527,1.338755 
	C298.714355,1.000000 300.428711,1.000000 302.571533,1.000005 
	C303.403168,1.930913 303.578033,3.088178 304.243317,3.759260 
	C317.237305,16.866705 330.285553,29.920380 343.338074,42.969654 
	C343.874207,43.505657 344.560669,43.891304 345.990784,44.948517 
	C345.990784,30.040033 345.990784,15.988654 345.995392,1.468638 
	C347.066681,1.000000 348.133331,1.000000 349.600006,1.000000 
z"/>
<path fill="#776E5E" opacity="1.000000" stroke="#FFFFFF" 
	d="
M878.571533,1.000003 
	C879.288940,1.809103 879.351379,2.843906 879.899902,3.394307 
	C893.736511,17.278543 907.624084,31.111872 922.043213,45.291039 
	C922.804260,47.332142 923.024841,49.036369 923.314392,51.273739 
	C923.960388,49.520340 924.421692,48.268356 924.882935,47.016392 
	C931.895630,40.198669 938.985779,33.458363 945.900940,26.543169 
	C954.116089,18.327944 962.180847,9.962389 970.155396,1.331003 
	C971.714355,1.000000 973.428711,1.000000 975.571533,0.999996 
	C974.786682,2.519460 973.704651,4.169725 972.340088,5.538449 
	C956.989685,20.936329 941.595825,36.290836 925.803467,52.066803 
	C928.891296,55.274475 931.826843,58.323994 934.881226,61.686752 
	C933.285645,62.000000 931.571289,62.000000 929.451233,61.652348 
	C926.943115,59.088879 924.840637,56.873058 922.255676,54.148689 
	C919.934326,57.062157 917.967102,59.531059 916.000000,61.999985 
	C914.285645,62.000000 912.571289,62.000000 910.428467,61.999996 
	C913.627686,58.155842 917.255432,54.311695 921.874451,49.417084 
	C905.553955,33.449085 889.317505,17.563301 873.040527,1.338758 
	C874.714355,1.000000 876.428711,1.000000 878.571533,1.000003 
z"/>
<path fill="#79705F" opacity="1.000000" stroke="#FFFFFF" 
	d="
M1873.571533,1.000008 
	C1874.443359,1.941814 1874.670654,3.098362 1875.361938,3.793716 
	C1889.078857,17.590990 1902.847412,31.337038 1916.618408,45.080391 
	C1917.054321,45.515606 1917.628418,45.812469 1918.996094,46.782398 
	C1918.996094,31.320316 1918.996094,16.628813 1918.998047,1.468654 
	C1922.031250,0.390103 1920.964355,2.691144 1920.967896,3.961390 
	C1921.015991,20.995049 1921.000000,38.028889 1920.654785,55.509441 
	C1918.539673,57.970810 1916.769897,59.985420 1915.000000,62.000015 
	C1913.285645,62.000000 1911.571289,62.000000 1909.428467,62.000008 
	C1911.903198,58.839828 1914.806519,55.679638 1918.093628,52.101547 
	C1901.410156,35.290356 1884.733765,18.486338 1868.028687,1.341159 
	C1869.714355,1.000000 1871.428711,1.000000 1873.571533,1.000008 
z"/>
<path fill="#B3A68D" opacity="1.000000" stroke="#FFFFFF" 
	d="
M924.842285,46.548195 
	C924.421692,48.268356 923.960388,49.520340 923.314392,51.273739 
	C923.024841,49.036369 922.804260,47.332142 922.393250,45.331722 
	C922.201111,30.663345 922.199402,16.291162 922.098877,1.459489 
	C922.750000,1.000000 923.500000,1.000000 924.625000,1.000000 
	C924.933899,16.026670 924.867798,31.053343 924.842285,46.548195 
z"/>
<path fill="#656565" opacity="1.000000" stroke="#FFFFFF" 
	d="
M1624.795410,51.170338 
	C1627.953979,54.569958 1630.790405,58.010303 1633.813477,61.725327 
	C1631.629395,62.000000 1629.258911,62.000000 1626.290405,61.697746 
	C1624.331787,59.299934 1622.971069,57.204369 1621.026245,54.209118 
	C1619.245850,57.654057 1618.122925,59.827019 1617.000000,61.999992 
	C1614.958374,62.000000 1612.916626,62.000000 1610.437500,61.999996 
	C1612.708496,58.875626 1615.416992,55.751263 1618.286621,52.312145 
	C1620.456055,51.735283 1622.464600,51.473171 1624.795410,51.170338 
z"/>
<path fill="#7D5BA6" opacity="1.000000" stroke="#FFFFFF" 
	d="
M724.466797,61.999985 
	C726.448364,59.009686 728.896729,56.019394 731.780579,52.497246 
	C734.910461,55.819660 737.494995,58.563194 740.039795,61.653366 
	C734.977905,62.000000 729.955811,62.000000 724.466797,61.999985 
z"/>
<path fill="#7D5BA6" opacity="1.000000" stroke="#FFFFFF" 
	d="
M532.466858,61.999992 
	C534.449219,59.010288 536.898376,56.020584 539.782959,52.499428 
	C542.910706,55.819775 545.495056,58.563248 548.039673,61.653358 
	C542.977905,62.000000 537.955811,62.000000 532.466858,61.999992 
z"/>
<path fill="#7D5BA6" opacity="1.000000" stroke="#FFFFFF" 
	d="
M340.466858,62.000000 
	C342.449188,59.010300 344.898407,56.020599 347.782959,52.499474 
	C350.910675,55.819775 353.495056,58.563244 356.039703,61.653358 
	C350.977905,62.000000 345.955811,62.000000 340.466858,62.000000 
z"/>
<path fill="#7D5BA6" opacity="1.000000" stroke="#FFFFFF" 
	d="
M148.466858,62.000000 
	C150.449203,59.010303 152.898392,56.020603 155.782944,52.499474 
	C158.910675,55.819767 161.495041,58.563236 164.039703,61.653351 
	C158.977905,62.000000 153.955811,62.000000 148.466858,62.000000 
z"/>
<path fill="#746B5B" opacity="1.000000" stroke="#FFFFFF" 
	d="
M14.571538,1.000000 
	C10.563262,5.669230 6.126524,10.338460 1.344893,15.003845 
	C1.000000,13.285642 1.000000,11.571282 1.293828,9.679404 
	C4.058437,6.667923 6.529219,3.833961 9.000000,1.000000 
	C10.714358,1.000000 12.428718,1.000000 14.571538,1.000000 
z"/>
<path fill="#6B6B6B" opacity="1.000000" stroke="#FFFFFF" 
	d="
M1225.655640,51.123852 
	C1228.627319,54.484409 1231.289307,57.900551 1233.975586,61.658348 
	C1231.629395,62.000000 1229.258911,62.000000 1226.444092,62.000000 
	C1225.156006,60.028049 1224.560425,57.895199 1223.410889,56.121216 
	C1221.604492,53.333229 1222.181641,51.842495 1225.655640,51.123852 
z"/>
<path fill="#656565" opacity="1.000000" stroke="#FFFFFF" 
	d="
M1025.899170,51.243214 
	C1029.052124,54.590683 1031.878052,57.996452 1034.852051,61.701111 
	C1032.629395,62.000000 1030.258911,62.000000 1027.444092,62.000000 
	C1025.875732,59.998627 1024.766113,57.988846 1023.623535,55.998009 
	C1022.231384,53.572311 1022.687134,51.939613 1025.899170,51.243214 
z"/>
<path fill="#7D5BA6" opacity="1.000000" stroke="#FFFFFF" 
	d="
M916.463135,61.999985 
	C917.967102,59.531059 919.934326,57.062157 922.255676,54.148689 
	C924.840637,56.873058 926.943115,59.088879 929.022766,61.652348 
	C924.975464,62.000000 920.950928,62.000000 916.463135,61.999985 
z"/>
<path fill="#6B6B6B" opacity="1.000000" stroke="#FFFFFF" 
	d="
M447.002441,49.291912 
	C449.484436,51.973270 451.626953,54.770931 453.887512,57.469753 
	C455.058289,58.867493 456.438141,60.090126 457.861755,61.695934 
	C456.285645,62.000000 454.571289,62.000000 452.469269,61.659187 
	C450.096588,59.312790 448.111542,57.307201 446.126526,55.301613 
	C444.970276,53.190193 442.313477,50.930759 447.002441,49.291912 
z"/>
<path fill="#6B6B6B" opacity="1.000000" stroke="#FFFFFF" 
	d="
M639.002502,49.291916 
	C641.484436,51.973286 643.626953,54.770969 645.887512,57.469784 
	C647.058289,58.867527 648.438110,60.090137 649.861755,61.695946 
	C648.285645,62.000000 646.571289,62.000000 644.469238,61.659195 
	C642.096680,59.312878 640.111816,57.307362 638.126892,55.301842 
	C636.970276,53.190380 634.313171,50.930988 639.002502,49.291916 
z"/>
<path fill="#6B6B6B" opacity="1.000000" stroke="#FFFFFF" 
	d="
M62.996536,49.326595 
	C65.481888,51.975033 67.626244,54.771942 69.888039,57.470425 
	C71.059120,58.867603 72.438324,60.090328 73.861755,61.695930 
	C72.285645,62.000000 70.571281,62.000000 68.469269,61.659180 
	C66.096611,59.312164 64.111618,57.305969 62.126621,55.299774 
	C61.103958,53.224941 59.331429,51.076263 62.996536,49.326595 
z"/>
<path fill="#6B6B6B" opacity="1.000000" stroke="#FFFFFF" 
	d="
M254.655426,49.960823 
	C258.503265,53.784676 262.113403,57.588276 265.861755,61.695938 
	C264.285645,62.000000 262.571289,62.000000 260.469269,61.659191 
	C258.096710,59.312866 256.111816,57.307354 254.126938,55.301838 
	C253.842178,53.494045 249.324509,51.456680 254.655426,49.960823 
z"/>
<path fill="#6B6B6B" opacity="1.000000" stroke="#FFFFFF" 
	d="
M1424.706055,52.056084 
	C1427.917969,55.122398 1430.848145,58.244583 1433.889160,61.683388 
	C1431.629395,62.000000 1429.258911,62.000000 1426.444092,62.000008 
	C1425.035522,59.917645 1423.795044,57.906933 1423.227905,55.721478 
	C1422.960449,54.691216 1423.985107,53.325592 1424.706055,52.056084 
z"/>
<path fill="#6B6B6B" opacity="1.000000" stroke="#FFFFFF" 
	d="
M622.428467,62.000004 
	C625.474548,58.426277 628.949097,54.852551 632.716675,51.108803 
	C633.286926,52.145962 633.564148,53.353142 633.575684,55.066978 
	C631.540039,57.715759 629.770020,59.857887 628.000000,62.000008 
	C626.285645,62.000000 624.571289,62.000000 622.428467,62.000004 
z"/>
<path fill="#656565" opacity="1.000000" stroke="#FFFFFF" 
	d="
M1809.444092,62.000023 
	C1811.933350,58.873245 1814.866699,55.746452 1817.948975,52.317329 
	C1817.819946,55.113575 1817.542114,58.212154 1817.132080,61.655365 
	C1814.629395,62.000000 1812.258911,62.000000 1809.444092,62.000023 
z"/>
<path fill="#6B6B6B" opacity="1.000000" stroke="#FFFFFF" 
	d="
M238.428467,62.000000 
	C241.474548,58.426266 244.949097,54.852531 248.716705,51.108772 
	C249.286942,52.145885 249.564087,53.353027 249.575592,55.066872 
	C247.539978,57.715717 245.769989,59.857861 244.000000,62.000000 
	C242.285645,62.000000 240.571289,62.000000 238.428467,62.000000 
z"/>
<path fill="#6B6B6B" opacity="1.000000" stroke="#FFFFFF" 
	d="
M430.428467,62.000000 
	C433.474640,58.426472 436.949310,54.852943 440.717407,51.110298 
	C441.287811,52.147575 441.564697,53.353973 441.575867,55.066872 
	C439.540100,57.715584 437.770050,59.857800 436.000000,62.000008 
	C434.285645,62.000000 432.571289,62.000000 430.428467,62.000000 
z"/>
<path fill="#6B6B6B" opacity="1.000000" stroke="#FFFFFF" 
	d="
M814.428467,61.999985 
	C817.474487,58.426243 820.949036,54.852516 824.716675,51.108788 
	C825.286560,52.145706 825.563354,53.352623 825.575012,55.066422 
	C823.539856,57.715530 821.769958,59.857765 820.000000,62.000000 
	C818.285645,62.000000 816.571289,62.000000 814.428467,61.999985 
z"/>
<path fill="#656565" opacity="1.000000" stroke="#FFFFFF" 
	d="
M1210.444092,62.000011 
	C1212.826904,59.099678 1215.653809,56.199333 1218.777588,53.133904 
	C1218.806152,55.754158 1218.537720,58.539497 1218.134644,61.662415 
	C1215.629395,62.000000 1213.258911,62.000000 1210.444092,62.000011 
z"/>
<path fill="#6B6B6B" opacity="1.000000" stroke="#FFFFFF" 
	d="
M1410.437500,62.000042 
	C1412.903809,58.866375 1415.807495,55.732670 1418.859863,52.300392 
	C1418.448120,55.126431 1417.887695,58.251045 1417.163696,61.687828 
	C1414.958374,62.000000 1412.916626,62.000000 1410.437500,62.000042 
z"/>
<path fill="#7D5BA6" opacity="1.000000" stroke="#FFFFFF" 
	d="
M1716.458130,62.000027 
	C1717.557739,59.708233 1719.115479,57.416409 1721.077026,54.530437 
	C1723.533813,57.241756 1725.384766,59.284489 1727.117920,61.663612 
	C1723.638672,62.000000 1720.277466,62.000000 1716.458130,62.000027 
z"/>
<path fill="#7D5BA6" opacity="1.000000" stroke="#FFFFFF" 
	d="
M1117.458008,62.000000 
	C1118.645386,59.702721 1120.290771,57.405434 1122.312256,54.582893 
	C1124.684937,57.239262 1126.526245,59.300758 1128.183838,61.681129 
	C1124.638672,62.000000 1121.277466,62.000000 1117.458008,62.000000 
z"/>
<path fill="#7D5BA6" opacity="1.000000" stroke="#FFFFFF" 
	d="
M1516.458008,62.000000 
	C1517.702881,59.746292 1519.405884,57.492580 1521.550781,54.653961 
	C1523.918579,57.327400 1525.735352,59.378639 1527.276123,61.714939 
	C1523.638672,62.000000 1520.277466,62.000000 1516.458008,62.000000 
z"/>
<path fill="#7D5BA6" opacity="1.000000" stroke="#FFFFFF" 
	d="
M1317.458008,61.999977 
	C1318.456055,59.747482 1319.912109,57.495003 1321.834106,54.521816 
	C1324.405884,57.289463 1326.267334,59.292725 1328.064453,61.647991 
	C1324.638672,62.000000 1321.277466,62.000000 1317.458008,61.999977 
z"/>
<path fill="#7D5BA6" opacity="1.000000" stroke="#FFFFFF" 
	d="
M8.505266,1.000000 
	C6.529219,3.833961 4.058437,6.667923 1.293828,9.250942 
	C1.000000,6.417543 1.000000,3.835086 1.000000,1.000000 
	C3.333921,1.000000 5.672227,1.000000 8.505266,1.000000 
z"/>
<path fill="#706859" opacity="1.000000" stroke="#FFFFFF" 
	d="
M1617.449951,61.999992 
	C1618.122925,59.827019 1619.245850,57.654057 1621.026245,54.209118 
	C1622.971069,57.204369 1624.331787,59.299934 1625.846191,61.697746 
	C1623.299927,62.000000 1620.599976,62.000000 1617.449951,61.999992 
z"/>
<path fill="#7D5BA6" opacity="1.000000" stroke="#FFFFFF" 
	d="
M436.428467,62.000008 
	C437.770050,59.857800 439.540100,57.715584 441.593964,55.440331 
	C441.922302,57.258057 441.966858,59.208828 442.005676,61.579803 
	C440.285645,62.000000 438.571289,62.000000 436.428467,62.000008 
z"/>
<path fill="#7D5BA6" opacity="1.000000" stroke="#FFFFFF" 
	d="
M446.092712,55.717529 
	C448.111542,57.307201 450.096588,59.312790 452.040802,61.659187 
	C450.285645,62.000000 448.571289,62.000000 446.428467,62.000000 
	C446.019653,60.044483 446.039307,58.088963 446.092712,55.717529 
z"/>
<path fill="#7D5BA6" opacity="1.000000" stroke="#FFFFFF" 
	d="
M628.428467,62.000008 
	C629.770020,59.857887 631.540039,57.715759 633.593872,55.440639 
	C633.922241,57.258312 633.966797,59.208981 634.005676,61.579826 
	C632.285645,62.000000 630.571289,62.000000 628.428467,62.000008 
z"/>
<path fill="#7D5BA6" opacity="1.000000" stroke="#FFFFFF" 
	d="
M638.093140,55.717751 
	C640.111816,57.307362 642.096680,59.312878 644.040771,61.659195 
	C642.285645,62.000000 640.571289,62.000000 638.428467,62.000000 
	C638.019836,60.044552 638.039612,58.089100 638.093140,55.717751 
z"/>
<path fill="#7D5BA6" opacity="1.000000" stroke="#FFFFFF" 
	d="
M820.428467,62.000000 
	C821.769958,59.857765 823.539856,57.715530 825.593384,55.439949 
	C825.921753,57.257580 825.966492,59.208557 826.005615,61.579765 
	C824.285645,62.000000 822.571289,62.000000 820.428467,62.000000 
z"/>
<path fill="#7D5BA6" opacity="1.000000" stroke="#FFFFFF" 
	d="
M830.428467,62.000000 
	C830.000000,60.086601 830.000000,58.173203 830.000000,54.834816 
	C832.625427,57.636440 834.350037,59.476791 836.037354,61.658573 
	C834.285645,62.000000 832.571289,62.000000 830.428467,62.000000 
z"/>
<path fill="#7D5BA6" opacity="1.000000" stroke="#FFFFFF" 
	d="
M254.093170,55.717743 
	C256.111816,57.307354 258.096710,59.312866 260.040802,61.659191 
	C258.285645,62.000000 256.571289,62.000000 254.428467,62.000000 
	C254.019791,60.044548 254.039597,58.089096 254.093170,55.717743 
z"/>
<path fill="#7D5BA6" opacity="1.000000" stroke="#FFFFFF" 
	d="
M244.428467,62.000000 
	C245.769989,59.857861 247.539978,57.715717 249.593719,55.440521 
	C249.922104,57.258190 249.966721,59.208908 250.005661,61.579811 
	C248.285645,62.000000 246.571289,62.000000 244.428467,62.000000 
z"/>
<path fill="#7D5BA6" opacity="1.000000" stroke="#FFFFFF" 
	d="
M62.092445,55.715794 
	C64.111618,57.305969 66.096611,59.312164 68.040802,61.659180 
	C66.285645,62.000000 64.571281,62.000000 62.428467,62.000000 
	C62.019424,60.043938 62.038845,58.087875 62.092445,55.715794 
z"/>
<path fill="#7D5BA6" opacity="1.000000" stroke="#FFFFFF" 
	d="
M52.428463,62.000000 
	C53.581963,59.918476 55.163925,57.836952 56.745892,55.755432 
	C57.168072,55.904491 57.590252,56.053551 58.012432,56.202610 
	C58.012432,57.879559 58.012432,59.556511 58.006218,61.616730 
	C56.285641,62.000000 54.571285,62.000000 52.428463,62.000000 
z"/>
<path fill="#7D5BA6" opacity="1.000000" stroke="#FFFFFF" 
	d="
M1915.499512,62.000015 
	C1916.769897,59.985420 1918.539673,57.970810 1920.654785,55.978100 
	C1921.000000,57.913235 1921.000000,59.826469 1921.000000,62.000000 
	C1919.336548,62.000000 1917.667725,62.000000 1915.499512,62.000015 
z"/>
<path fill="#7D5BA6" opacity="1.000000" stroke="#FFFFFF" 
	d="
M1812.307617,11.307766 
	C1815.199341,8.309322 1817.841187,5.561043 1820.131592,3.178477 
	C1828.086670,11.152487 1835.660889,18.744825 1842.897339,25.998537 
	C1835.927856,32.818760 1828.256714,40.325657 1820.996460,47.430382 
	C1814.244995,40.732643 1806.539307,33.088215 1798.096436,24.712425 
	C1802.415039,20.643391 1807.236450,16.100660 1812.307617,11.307766 
z"/>
<path fill="#7D5BA6" opacity="1.000000" stroke="#FFFFFF" 
	d="
M806.366699,25.642658 
	C809.947510,21.207693 813.685181,17.061178 817.467346,12.955598 
	C820.713989,9.431247 824.011353,5.953583 826.977295,2.785286 
	C834.885742,10.721189 842.118713,17.979334 849.081543,24.966314 
	C842.270996,31.711157 834.985657,38.926270 827.303284,46.534573 
	C820.848999,40.134624 813.695923,33.041740 806.366699,25.642658 
z"/>
<path fill="#7D5BA6" opacity="1.000000" stroke="#FFFFFF" 
	d="
M1035.660889,36.660877 
	C1031.490723,41.175320 1027.570435,45.439747 1024.016968,49.305069 
	C1015.548340,40.866070 1007.943237,33.287594 1000.649475,26.019348 
	C1007.960815,18.697739 1015.545654,11.102175 1022.815002,3.822644 
	C1030.062622,11.081977 1037.654663,18.686243 1045.907593,26.952478 
	C1042.863281,29.832825 1039.387085,33.121845 1035.660889,36.660877 
z"/>
<path fill="#7D5BA6" opacity="1.000000" stroke="#FFFFFF" 
	d="
M1443.237549,28.247166 
	C1436.183472,35.331181 1429.378174,42.163445 1422.981079,48.585983 
	C1415.227295,40.777031 1407.668457,33.164223 1400.659912,26.105770 
	C1407.453735,19.295162 1415.109863,11.620088 1423.095337,3.614904 
	C1429.496094,10.007548 1436.696899,17.107187 1443.715576,24.382532 
	C1444.280518,24.968128 1443.592285,26.762665 1443.237549,28.247166 
z"/>
<path fill="#7D5BA6" opacity="1.000000" stroke="#FFFFFF" 
	d="
M1227.457275,7.534716 
	C1233.613037,13.615617 1239.517456,19.445269 1245.437500,25.290277 
	C1237.303223,33.166485 1229.514648,40.707943 1222.041504,47.943989 
	C1214.955566,40.986668 1207.302002,33.472179 1199.983398,26.286425 
	C1207.542603,18.684343 1215.103394,11.080801 1223.927979,2.206150 
	C1224.853027,3.638734 1226.029541,5.461101 1227.457275,7.534716 
z"/>
<path fill="#7D5BA6" opacity="1.000000" stroke="#FFFFFF" 
	d="
M230.341553,24.325165 
	C237.608521,17.033428 244.705032,10.050395 251.483444,3.380367 
	C258.803772,10.715040 266.043610,17.969057 272.916595,24.855507 
	C266.095978,31.623198 258.732330,38.929688 250.805298,46.795189 
	C244.309174,39.818295 237.240143,32.226082 230.341553,24.325165 
z"/>
<path fill="#7D5BA6" opacity="1.000000" stroke="#FFFFFF" 
	d="
M437.707825,8.703835 
	C439.592957,6.360167 441.227600,4.267237 442.561310,2.559637 
	C450.748077,10.723771 458.005188,17.960793 464.966644,24.902969 
	C458.115295,31.589369 450.691589,38.834335 443.591492,45.763508 
	C437.071808,39.289261 429.798737,32.066864 421.835907,24.159521 
	C426.809814,19.318232 432.133545,14.136403 437.707825,8.703835 
z"/>
<path fill="#7D5BA6" opacity="1.000000" stroke="#FFFFFF" 
	d="
M621.705444,16.706223 
	C626.350037,11.729583 630.744446,7.003185 634.813293,2.626950 
	C642.933350,10.711494 650.194824,17.941154 657.215027,24.930666 
	C650.294861,31.778975 643.005432,38.992680 636.071777,45.854366 
	C629.398743,39.130733 622.094299,31.770914 614.109619,23.725700 
	C616.127991,21.865707 618.791565,19.411085 621.705444,16.706223 
z"/>
<path fill="#7D5BA6" opacity="1.000000" stroke="#FFFFFF" 
	d="
M73.763123,33.762856 
	C69.248192,38.436863 64.982468,42.860229 61.168552,46.815086 
	C53.354767,39.099037 45.973354,31.809954 38.870541,24.795980 
	C45.678135,17.959600 52.908958,10.698205 59.827724,3.750183 
	C66.786568,10.709701 74.034515,17.958351 82.716888,26.641567 
	C80.228333,28.605827 77.120338,31.059017 73.763123,33.762856 
z"/>
<path fill="#7D5BA6" opacity="1.000000" stroke="#FFFFFF" 
	d="
M1599.998291,27.826178 
	C1599.929077,26.307541 1599.647095,24.612085 1600.358521,23.872616 
	C1607.146118,16.819004 1614.102051,9.927470 1620.487793,3.513571 
	C1628.275391,11.321540 1635.827759,18.893707 1643.210571,26.295774 
	C1636.407349,32.937263 1628.650391,40.509850 1620.525513,48.441612 
	C1614.269409,42.164055 1607.257935,35.128487 1599.998291,27.826178 
z"/>
</svg>